<svg width="597" height="1086" viewBox="0 0 597 1086" fill="none" xmlns="http://www.w3.org/2000/svg">
<path fill-rule="evenodd" clip-rule="evenodd" d="M8.45276 5.17462C-109.31 6.83584 -232.447 2.05081 -330.612 66.9792C-430.975 133.361 -492.108 244.051 -526.693 359.133C-560.686 472.24 -572.181 597.62 -522.262 704.684C-474.903 806.259 -360.012 848.066 -268.478 912.943C-178.209 976.923 -101.039 1064.4 8.45276 1080.84C127.702 1098.75 250.503 1069.1 353.386 1006.33C462.146 939.975 576.498 848.674 595.202 722.85C613.494 599.802 487.145 508.164 444.835 391.152C404.649 280.013 443.165 135.689 354.555 57.3139C265.056 -21.8478 128.043 3.48761 8.45276 5.17462Z" fill="#242B3E"/>
</svg>
