<svg width="1153" height="1086" viewBox="0 0 1153 1086" fill="none" xmlns="http://www.w3.org/2000/svg">
<path fill-rule="evenodd" clip-rule="evenodd" d="M564.453 5.17462C446.69 6.83584 323.553 2.05081 225.388 66.9792C125.025 133.361 63.8923 244.051 29.3066 359.133C-4.68559 472.24 -16.1813 597.62 33.7375 704.684C81.0971 806.259 195.988 848.066 287.522 912.943C377.791 976.923 454.961 1064.4 564.453 1080.84C683.702 1098.75 806.503 1069.1 909.386 1006.33C1018.15 939.975 1132.5 848.674 1151.2 722.85C1169.49 599.802 1043.14 508.164 1000.84 391.152C960.649 280.013 999.165 135.689 910.555 57.3139C821.056 -21.8478 684.043 3.48761 564.453 5.17462Z" fill="#242B3E"/>
</svg>
