<svg width="289" height="683" viewBox="0 0 289 683" fill="none" xmlns="http://www.w3.org/2000/svg">
<path fill-rule="evenodd" clip-rule="evenodd" d="M-81.0753 3.25439C-155.124 4.29916 -232.552 1.28978 -294.277 42.1241C-357.385 83.8728 -395.825 153.487 -417.572 225.863C-438.946 296.998 -446.175 375.851 -414.786 443.185C-385.007 507.067 -312.764 533.36 -255.208 574.162C-198.447 614.4 -149.923 669.414 -81.0753 679.755C-6.0921 691.018 71.1249 672.374 135.817 632.896C204.205 591.163 276.109 533.742 287.87 454.61C299.371 377.223 219.924 319.591 193.32 246.001C168.051 176.104 192.27 85.3365 136.552 36.0455C80.2754 -13.7404 -5.87775 2.19341 -81.0753 3.25439Z" fill="#242B3E"/>
</svg>
