<svg width="60" height="58" viewBox="0 0 60 58" fill="none" xmlns="http://www.w3.org/2000/svg">
<path d="M24.371 21.9185C23.5684 20.7554 22.1486 20.6685 20.8451 20.668L19.151 20.6944C16.7631 20.9876 15.1038 22.3856 13.5356 24.0013L12.1473 25.3996C11.0336 26.5039 9.87803 27.5805 8.8886 28.7944C7.41306 30.6047 7.26756 31.9251 7.26803 34.0905C7.26841 35.626 7.12066 37.0756 8.52503 38.1304C9.2261 38.6571 10.0675 38.748 10.9254 38.7364C10.9792 38.7357 11.0209 38.7107 11.0293 38.7642C12.1524 46.0183 20.8575 45.001 21.5432 38.8497L28.0825 38.8147L28.9407 38.8152L29.125 38.773C29.0545 38.7167 28.9325 38.6931 28.8464 38.6644L28.235 38.4596C28.1926 38.4047 27.8641 38.3 27.7782 38.26C25.889 37.3795 24.6261 35.4312 24.3952 33.4382C24.3228 32.814 24.366 32.1501 24.3659 31.5204L24.367 28.7874L24.371 21.9185ZM17.6425 23.9784C19.1531 24.1954 18.9564 25.3317 18.9574 26.4523C18.9588 27.9014 19.0653 29.192 17.275 29.7244C16.9068 29.8339 16.3747 29.7739 15.986 29.7748L13.7752 29.7887C13.0149 29.7316 12.2878 29.0887 12.5088 28.2916L12.5197 28.2504C12.7164 27.5684 14.4725 26.1553 15.0252 25.6357C15.7904 24.9161 16.4485 23.9198 17.6425 23.9784Z" fill="#00537A"/>
<path d="M48.5565 19.8906L47.5896 19.8806C47.2412 18.4939 46.2719 17.2395 45.0167 16.4976C43.3258 15.4982 41.4555 15.5805 39.5521 15.5795L31.9032 15.5744C30.8321 15.5725 29.6928 15.481 28.6454 15.7324C26.0928 16.3452 24.4457 18.2958 24.4343 20.8347C24.4327 21.178 24.4668 21.586 24.3677 21.9177L24.3631 28.7866L24.363 31.5196C24.363 32.1493 24.3199 32.8132 24.3923 33.4374C24.6232 35.4304 25.8861 37.3787 27.7753 38.2592C27.8611 38.2992 28.1896 38.4039 28.2321 38.4588L28.8435 38.6636C28.9296 38.6923 29.0516 38.7159 29.1221 38.7722L28.9378 38.8118L32.5224 38.7492C32.52 39.0952 32.5205 39.4639 32.5916 39.8306C33.3072 43.5228 38.2239 45.2234 41.0435 42.4376C41.7493 41.7404 42.5354 40.4805 42.5809 39.4576L42.6315 39.1042L42.6503 38.9905C42.6855 38.8062 42.9334 38.8999 43.082 38.8944C44.1274 38.8549 45.2561 38.4754 46.1165 37.9156C48.1933 36.5645 48.606 34.3375 48.6039 32.0716L48.6019 28.9182C48.6005 28.5428 48.6061 28.1418 48.5313 27.773L48.4834 27.4769C48.4702 27.3811 48.4482 27.3379 48.3784 27.2691L48.3584 27.25C48.5789 27.2156 48.8142 27.2406 49.0394 27.2163L49.0763 27.212L50.0253 27.2046C50.2168 27.2027 50.4319 27.2122 50.6176 27.1679L50.6552 27.1581C51.752 26.8823 51.6058 25.37 50.4379 25.1864C49.8231 25.094 49.1788 25.2265 48.5752 25.1401C48.6385 24.2669 48.4299 22.8814 48.2385 22.0496C48.1428 22.0264 48.0649 21.9827 48.0588 21.879C48.177 21.8772 48.3016 21.8816 48.4172 21.8556L48.4749 21.8417L51.4 21.825C51.5936 21.823 51.7858 21.8313 51.9642 21.7461L52.0029 21.7272C52.7806 21.3696 52.8138 20.1668 51.9638 19.9021L51.9297 19.8922C51.6666 19.8144 51.247 19.8819 50.9675 19.8832L48.5565 19.8906Z" fill="#A8E8F9"/>
<path d="M48.4749 21.8307L51.4 21.8256C51.5936 21.8236 51.7858 21.8319 51.9642 21.7467L52.0029 21.7278C52.7806 21.3702 52.8138 20.1675 51.9638 19.9027L51.9297 19.8929C51.6666 19.8151 51.247 19.8826 50.9675 19.8839L48.5565 19.8912L45.237 19.8965C45.0195 19.8974 44.7909 19.8925 44.5792 19.9455L44.5415 19.9545C43.7235 20.1628 43.8647 21.6743 44.9727 21.8068C45.7727 21.9024 47.6415 21.8748 48.4749 21.8307Z" fill="#00537A"/>
<path d="M50.4351 25.1872L35.0268 25.1441C34.4874 25.1442 33.6406 25.0115 33.154 25.296L33.1132 25.3193C32.3363 25.7775 32.3905 26.8954 33.2793 27.1562L33.3257 27.1704C33.533 27.2285 33.765 27.2099 33.9793 27.2088L37.8114 27.2032L49.0735 27.2078L50.0225 27.2054C50.2139 27.2035 50.4291 27.213 50.6148 27.1687L50.6524 27.1589C51.7492 26.8831 51.6029 25.3708 50.4351 25.1872Z" fill="url(#paint0_linear_1650_2696)"/>
<path d="M21.0201 34.1162C23.9218 33.3485 27.0067 35.3853 27.2906 38.2512C27.3056 38.4029 27.3006 38.5781 27.3357 38.7252C27.3382 39.0967 27.3376 39.4654 27.2666 39.8321C26.551 43.5243 21.6342 45.2249 18.8146 42.4391C18.1089 41.7419 17.3228 40.482 17.2772 39.4591L17.2266 39.1057C17.2193 36.9102 18.7748 34.673 21.0201 34.1162Z" fill="url(#paint1_linear_1650_2696)"/>
<defs>
<linearGradient id="paint0_linear_1650_2696" x1="37.3085" y1="30.9919" x2="46.3866" y2="21.1367" gradientUnits="userSpaceOnUse">
<stop stop-color="#00305B"/>
<stop offset="1" stop-color="#178BB3"/>
</linearGradient>
<linearGradient id="paint1_linear_1650_2696" x1="26.8666" y1="40.9091" x2="17.8229" y2="36.6448" gradientUnits="userSpaceOnUse">
<stop stop-color="#00375B"/>
<stop offset="1" stop-color="#1C84B3"/>
</linearGradient>
</defs>
</svg>
