<svg width="60" height="58" viewBox="0 0 60 58" fill="none" xmlns="http://www.w3.org/2000/svg">
<path d="M21.5961 22.8203L21.6232 23.185L27.85 23.1907C28.2925 23.1915 28.78 23.1781 29.2107 23.2857C31.5825 23.4928 33.6523 26.0198 33.8641 28.25C33.9421 29.0717 33.934 30.805 33.8624 31.6222L33.8382 31.932L33.7622 31.9169C33.592 32.0728 33.6332 32.4871 33.633 32.6892L33.6331 33.5633C33.6333 34.0715 33.6697 34.6115 33.6092 35.1156C33.2525 38.0888 30.9532 39.6178 28.0657 39.6291L22.0494 39.6409C21.6029 39.6595 21.28 40.0907 20.9849 40.3796L19.442 41.9175C18.373 42.9836 17.2829 44.0706 15.6214 43.2052C13.9713 42.3457 14.5205 40.5436 13.512 40.2745L12.652 40.0243C12.0503 39.8212 11.4796 39.5246 10.955 39.1759C8.84532 37.6619 8.65396 36.37 8.65627 33.9301L8.66206 29.3338C8.6629 28.954 8.63982 28.5528 8.7005 28.177C9.15792 25.3444 11.163 23.4563 14.1845 23.2064C14.8758 23.1491 15.6071 23.1925 16.303 23.1924L20.8662 23.1927C21.4937 23.1925 21.5848 23.3527 21.5961 22.8203Z" fill="#A8E8F9"/>
<path d="M15.8119 30.2574C17.2311 30.1946 17.8238 32.0164 16.2893 32.5292C14.6792 32.8595 14.3219 30.5874 15.8119 30.2574Z" fill="#00537A"/>
<path d="M20.0602 30.2873C21.6132 30.1256 22.1416 31.9739 20.5385 32.4972C19.0747 32.8629 18.4292 30.7819 20.0602 30.2873Z" fill="#00537A"/>
<path d="M24.5496 30.2594C26.0382 30.1613 26.5045 32.1114 24.8846 32.5113C23.2505 32.6532 22.8911 30.5937 24.5496 30.2594Z" fill="#00537A"/>
<path d="M10.9585 39.1761L10.7994 38.9689C10.76 38.9364 10.7422 38.9113 10.6953 38.8844L10.8041 38.89C11.2888 38.76 11.089 38.4262 11.0218 38.1106C11.1836 38.1915 11.5242 38.4094 11.7324 38.5281C12.3128 38.859 12.9293 39.0579 13.5806 39.2104C14.4945 39.4246 14.5545 39.2597 14.7693 40.2206C15.0015 41.2591 15.3291 42.2085 16.4701 42.5034L16.5422 42.523C17.4734 42.7416 18.0838 41.9573 18.6359 41.3701L20.3127 39.6121C20.9338 39.0021 21.0772 38.69 21.9655 38.6684L26.841 38.6579C27.4668 38.6582 28.1287 38.6966 28.7509 38.6328L29.2294 38.5673C30.9019 38.2581 32.3039 37.0261 32.5569 35.3686C32.6086 35.0297 32.5811 34.6603 32.5812 34.318L32.585 29.677C32.5883 29.0097 32.6496 28.3547 32.5178 27.6947L32.4342 27.3836C32.068 26.3074 31.1354 25.4237 30.1499 24.8652L29.6812 24.6094C29.5297 24.5169 29.335 24.435 29.1659 24.3803L29.1248 24.3678C29.0728 24.3515 28.9947 24.3483 28.9488 24.325L28.9051 24.2968C28.6731 24.2907 28.2617 24.1155 28.0062 24.0537L27.9528 24.0413C27.7144 23.9771 27.4287 24.0553 27.2121 23.992C27.1314 23.9685 27.1399 23.8849 27.0253 23.8945C26.865 23.9079 26.6459 23.9224 26.5088 23.83L26.4783 23.8085C26.3171 23.6991 26.1773 23.5853 26.3611 23.4344L26.3578 23.3296C26.3033 23.3336 26.2332 23.3388 26.1805 23.3278L26.1314 23.3091C26.0584 23.2888 26.0143 23.2893 25.9491 23.2457L25.9714 23.209L28.3249 23.3002C28.2507 23.3119 28.2133 23.3389 28.1742 23.3993C28.1214 23.4805 28.0299 23.4214 27.9439 23.5056L28.1559 23.5574C28.2186 23.6051 28.2788 23.6301 28.3598 23.6185L28.4034 23.6095C28.46 23.6412 29.6779 23.7378 29.7517 23.703L29.746 23.6255L29.5804 23.5321C29.5658 23.5391 28.9026 23.3473 28.825 23.3291L28.6965 23.3633C28.7391 23.2161 29.0683 23.2983 29.2142 23.2895C31.586 23.493 33.6558 26.02 33.8676 28.2502C33.9456 29.0719 33.9374 30.8052 33.8659 31.6223L33.8417 31.9322L33.7657 31.9171C33.5955 32.0729 33.6367 32.4873 33.6365 32.6894L33.6366 33.5635C33.6368 34.0716 33.6732 34.6117 33.6127 35.1157C33.256 38.0889 30.9567 39.618 28.0692 39.6293L22.0528 39.6411C21.6064 39.6597 21.2834 40.0908 20.9884 40.3797L19.4455 41.9177C18.3765 42.9838 17.2864 44.0707 15.6249 43.2054C13.9748 42.3459 14.524 40.5438 13.5155 40.2746L12.6554 40.0244C12.0537 39.8213 11.4831 39.5247 10.9585 39.1761Z" fill="url(#paint0_linear_1650_2739)"/>
<path d="M21.5953 22.8899L21.5984 19.991C21.599 19.438 21.5454 18.831 21.6561 18.2886C22.0406 16.4052 23.4626 15.0817 25.392 14.7598C25.9075 14.6737 26.4669 14.7048 26.9892 14.7047L46.4049 14.7008C46.7371 14.699 47.093 14.6686 47.4222 14.7061C49.3974 14.9307 50.9701 16.551 51.2772 18.4208C51.3658 18.9604 51.3175 19.5578 51.3179 20.1054L51.3187 26.3889C51.3185 27.0327 51.3732 27.7354 51.2597 28.3707C50.9458 30.1271 49.3651 31.6447 47.5332 31.8717C47.0048 31.9371 46.3029 31.7839 45.935 32.2468C45.1338 33.2551 46.2117 35.2783 44.2082 35.8004L44.1554 35.8145C42.9611 36.1236 42.244 35.4203 41.5009 34.647L40.1387 33.2037C39.7637 32.8012 39.39 32.3619 38.9496 32.0249C38.6182 31.7713 37.9143 31.9102 37.52 31.9102L34.7822 31.9156C34.4848 31.9195 34.1262 31.9878 33.8375 31.9262L33.8617 31.6221C33.9332 30.8049 33.9414 29.0716 33.8634 28.2499C33.6516 26.0197 31.5818 23.4927 29.21 23.2893C28.7792 23.178 28.2917 23.1914 27.8493 23.1906L21.6224 23.1849L21.5953 22.8899Z" fill="#00537A"/>
<path d="M43.1729 23.6067C44.5025 23.4954 44.8296 25.2331 43.5233 25.537C41.9852 25.5719 41.8841 23.8938 43.1729 23.6067Z" fill="#A8E8F9"/>
<path d="M39.5572 25.2805C39.5256 25.3406 39.3839 25.4151 39.3233 25.4457C37.9693 26.1312 37.0851 24.1375 38.4447 23.6366C38.7441 23.5263 39.0689 23.584 39.3503 23.7099C39.7859 24.0096 40.0593 24.7282 39.6747 25.1712L39.5572 25.2805Z" fill="#A8E8F9"/>
<defs>
<linearGradient id="paint0_linear_1650_2739" x1="29.181" y1="40.571" x2="19.2934" y2="28.8047" gradientUnits="userSpaceOnUse">
<stop stop-color="#5AC9DD"/>
<stop offset="1" stop-color="#B2EDFA"/>
</linearGradient>
</defs>
</svg>
