<svg width="29" height="24" viewBox="0 0 29 24" fill="none" xmlns="http://www.w3.org/2000/svg">
<path d="M16.9586 20.3296C15.6541 18.9515 15.0022 17.0447 15.0029 14.6094C15.0029 9.30669 18.5145 4.43689 25.5377 0L26.2559 1.1343C21.3071 4.4351 18.8329 7.73581 18.8336 11.0364C18.8336 11.076 18.8397 11.1085 18.8397 11.1467C19.9996 10.1084 21.5029 9.55503 23.0476 9.59763C24.5923 9.64023 26.0639 10.2757 27.1668 11.3763C28.2698 12.4769 28.9223 13.9612 28.9933 15.531C29.0644 17.1008 28.5487 18.6398 27.5499 19.8388C27.4771 19.9361 27.3811 20.0249 27.3019 20.118C27.2636 20.1594 27.2285 20.2007 27.1893 20.2403C27.0469 20.414 26.8948 20.5792 26.7337 20.7351C25.5106 21.8451 23.9011 22.4001 21.9052 22.4C19.9093 22.3999 18.2605 21.7098 16.9586 20.3296ZM1.95515 20.3287C0.651717 18.9506 0 17.0436 0 14.6077C0 9.30669 3.51131 4.43744 10.5339 0L11.2531 1.13486C6.40668 4.36854 3.95041 7.60071 3.85 10.8318C4.81429 10.0887 5.97418 9.65423 7.18204 9.58367C8.3899 9.5131 9.5911 9.80963 10.6327 10.4355C11.6743 11.0614 12.5093 11.9883 13.0312 13.0983C13.5532 14.2083 13.7386 15.4511 13.5638 16.6685C13.5638 16.6874 13.5669 16.7004 13.5669 16.7181C13.5669 18.2862 12.9551 19.625 11.7313 20.7346C10.5076 21.8441 8.89809 22.3986 6.90292 22.3981C4.90793 22.3981 3.25868 21.7083 1.95515 20.3287Z" fill="#A6A6A6"/>
</svg>
