<svg width="40" height="40" viewBox="0 0 40 40" fill="none" xmlns="http://www.w3.org/2000/svg">
<circle opacity="0.4" cx="20" cy="20" r="20" fill="#1F232F"/>
<path d="M31.7609 15.2008C31.7609 15.2008 31.5266 13.5461 30.8047 12.8195C29.8906 11.8633 28.8688 11.8586 28.4 11.8023C25.0438 11.5586 20.0047 11.5586 20.0047 11.5586H19.9953C19.9953 11.5586 14.9562 11.5586 11.6 11.8023C11.1313 11.8586 10.1094 11.8633 9.19531 12.8195C8.47344 13.5461 8.24375 15.2008 8.24375 15.2008C8.24375 15.2008 8 17.1461 8 19.0867V20.9055C8 22.8461 8.23906 24.7914 8.23906 24.7914C8.23906 24.7914 8.47344 26.4461 9.19062 27.1727C10.1047 28.1289 11.3047 28.0961 11.8391 28.1992C13.7609 28.382 20 28.4383 20 28.4383C20 28.4383 25.0438 28.4289 28.4 28.1898C28.8688 28.1336 29.8906 28.1289 30.8047 27.1727C31.5266 26.4461 31.7609 24.7914 31.7609 24.7914C31.7609 24.7914 32 22.8508 32 20.9055V19.0867C32 17.1461 31.7609 15.2008 31.7609 15.2008ZM17.5203 23.1133V16.368L24.0031 19.7523L17.5203 23.1133Z" fill="white"/>
</svg>
