<svg width="36" height="32" viewBox="0 0 36 32" fill="none" xmlns="http://www.w3.org/2000/svg">
<path d="M15.8597 13.3217V13.3214C15.8597 12.339 15.5257 11.3804 14.9027 10.5668C14.2799 9.75348 13.3966 9.12187 12.3662 8.74945C11.3358 8.37704 10.2028 8.27979 9.10983 8.46949C8.01688 8.65919 7.01093 9.12773 6.21987 9.81798C5.42866 10.5084 4.88747 11.3902 4.66797 12.353C4.44842 13.3162 4.56132 14.3142 4.99135 15.2201C5.42122 16.1257 6.14779 16.8969 7.07641 17.4383C8.00495 17.9797 9.09512 18.2679 10.2092 18.2679V18.1431L10.2094 18.2679C11.7019 18.265 13.1351 17.7465 14.1949 16.8218C15.2552 15.8965 15.8563 14.6386 15.8597 13.3217ZM22.4881 12.9107H22.4883C24.3064 12.9078 26.052 12.2765 27.3421 11.1508C28.6327 10.0246 29.3632 8.49411 29.3665 6.89312V6.89286C29.3665 5.69853 28.9605 4.53275 28.2026 3.54297C27.4449 2.55345 26.3698 1.78453 25.115 1.33101C23.8603 0.877506 22.4803 0.759032 21.1492 0.990074C19.8181 1.22112 18.5933 1.7917 17.6305 2.6318C16.6676 3.47203 16.0095 4.54473 15.7426 5.71544C15.4757 6.88639 15.6129 8.09989 16.1358 9.20156C16.6586 10.3029 17.5426 11.2414 18.6731 11.9006C19.8036 12.5597 21.1312 12.9107 22.4881 12.9107ZM8.56669 11.2023C9.05163 10.9195 9.62327 10.7679 10.2092 10.7679C10.5981 10.7679 10.9829 10.8347 11.3414 10.9643C11.7 11.0939 12.0248 11.2835 12.2976 11.5216C12.5704 11.7596 12.7858 12.0413 12.9323 12.35C13.0788 12.6586 13.1539 12.9886 13.1539 13.3214C13.1539 13.8224 12.9838 14.3138 12.6623 14.7336C12.3407 15.1536 11.8816 15.4833 11.3414 15.6786C10.8012 15.8738 10.206 15.9251 9.63168 15.8254C9.05733 15.7257 8.53175 15.4799 8.12074 15.1213C7.70989 14.7628 7.43247 14.3082 7.32031 13.8162C7.20822 13.3245 7.26552 12.8145 7.48605 12.35C7.70673 11.8851 8.08184 11.485 8.56669 11.2023ZM20.1634 3.88283C20.8503 3.48237 21.6593 3.26786 22.4881 3.26786C23.5998 3.26786 24.6632 3.65337 25.4448 4.33539C26.2259 5.01694 26.6607 5.93738 26.6607 6.89286C26.6607 7.6057 26.4186 8.30428 25.9622 8.90025C25.5056 9.4965 24.8548 9.96352 24.0902 10.2399C23.3257 10.5162 22.4836 10.5887 21.671 10.4476C20.8585 10.3066 20.1141 9.95881 19.5314 9.45032C18.9488 8.94198 18.5545 8.29649 18.3949 7.59667C18.2354 6.89709 18.3171 6.17173 18.6305 5.5114C18.9442 4.85073 19.4766 4.28325 20.1634 3.88283ZM7.7534 31.125H12.665C14.4841 31.125 16.2317 30.4946 17.5225 29.3682C18.8139 28.2414 19.5434 26.7091 19.5434 25.1071C19.5434 23.5052 18.8139 21.9729 17.5225 20.8461C16.2317 19.7197 14.4841 19.0893 12.665 19.0893H7.7534C5.93422 19.0893 4.18669 19.7197 2.89584 20.8461C1.60445 21.9729 0.875 23.5052 0.875 25.1071C0.875 26.7091 1.60445 28.2414 2.89584 29.3682C4.18669 30.4946 5.93422 31.125 7.7534 31.125ZM4.79671 22.5497C5.57833 21.8677 6.64167 21.4821 7.7534 21.4821H12.665C13.7767 21.4821 14.84 21.8677 15.6217 22.5497C16.4027 23.2312 16.8376 24.1517 16.8376 25.1071C16.8376 26.0626 16.4027 26.9831 15.6217 27.6646C14.84 28.3466 13.7767 28.7321 12.665 28.7321H7.7534C6.64167 28.7321 5.57833 28.3466 4.79671 27.6646C4.01563 26.9831 3.58078 26.0626 3.58078 25.1071C3.58078 24.1517 4.01563 23.2312 4.79671 22.5497Z" fill="#008EFF" stroke="#008EFF" stroke-width="0.25"/>
<path d="M13.2748 31.1261H26.1676C28.6381 31.1261 31.0103 30.2699 32.7617 28.7417C34.5136 27.213 35.5018 25.1357 35.5018 22.9654C35.5018 20.7951 34.5136 18.7178 32.7617 17.1891C31.0103 15.6609 28.6381 14.8047 26.1676 14.8047H18.8003C18.4466 14.8047 18.1045 14.9271 17.8498 15.1493C17.5947 15.372 17.4474 15.6779 17.4474 16.0011C17.4474 16.3244 17.5947 16.6303 17.8498 16.8529C18.1045 17.0751 18.4466 17.1975 18.8003 17.1975H26.1676C27.9307 17.1975 29.6186 17.8088 30.8608 18.8927C32.1024 19.9761 32.796 21.4416 32.796 22.9654C32.796 24.4892 32.1024 25.9547 30.8608 27.0381C29.6186 28.122 27.9307 28.7333 26.1676 28.7333H13.2748C12.921 28.7333 12.5789 28.8557 12.3243 29.0779C12.0692 29.3005 11.9219 29.6064 11.9219 29.9297C11.9219 30.2529 12.0692 30.5588 12.3243 30.7815C12.5789 31.0037 12.921 31.1261 13.2748 31.1261Z" fill="#008EFF" stroke="#008EFF" stroke-width="0.25"/>
</svg>
