<svg width="30" height="30" viewBox="0 0 30 30" fill="none" xmlns="http://www.w3.org/2000/svg">
<g clip-path="url(#clip0_1914_3046)">
<path d="M26.2489 6.13867H12.1194C10.936 6.13867 9.97656 7.09807 9.97656 8.28153V16.2726C9.97656 17.4561 10.936 18.4155 12.1194 18.4155H26.2489C27.4324 18.4155 28.3917 17.4561 28.3917 16.2726V8.28153C28.3917 7.09807 27.4324 6.13867 26.2489 6.13867Z" fill="#D7E0FF"/>
<path d="M28.3917 13.929V8.28153C28.3917 7.09807 27.4324 6.13867 26.2489 6.13867H12.1194C10.936 6.13867 9.97656 7.09807 9.97656 8.28153V8.57189" stroke="#4147D5" stroke-width="1.73288" stroke-linecap="round" stroke-linejoin="round"/>
<path d="M16.1172 1.60742L19.1864 6.13849L22.2556 1.60742" stroke="#4147D5" stroke-width="1.73288" stroke-linecap="round" stroke-linejoin="round"/>
<path d="M19.1875 6.13867L19.1875 13.929" stroke="#4147D5" stroke-width="1.73288" stroke-linecap="round"/>
<path d="M13.9385 21.5501L13.6821 18.8365C13.5114 17.0301 12.2216 15.5269 10.4621 15.0837L8.46076 14.5797C6.74776 14.1483 4.97838 13.9842 3.21526 14.0933L1.6875 14.1878V24.4766L8.66363 27.1157C12.0545 28.3984 15.8047 28.353 19.1635 26.9882L26.4462 24.0294C27.5467 23.5821 28.1187 22.3639 27.7595 21.2316C27.3993 20.0951 26.2233 19.429 25.0632 19.7043L15.8404 21.8934L13.9385 21.5501Z" fill="white"/>
<path d="M2.01661 13.5374L3.54436 13.4429C5.30748 13.3338 7.07688 13.4979 8.78988 13.9293L11.3266 14.5682C12.7044 14.9152 13.6186 16.221 13.4732 17.6344C13.303 19.289 11.7623 20.4499 10.1249 20.1574L7.7318 19.7298L16.1695 21.2429L24.9093 19.1686C26.323 18.8331 27.7467 19.6849 28.1191 21.0893C28.4654 22.3937 27.7876 23.7521 26.5372 24.2602L19.5464 27.1005C16.1458 28.4822 12.3566 28.5688 8.8964 27.3437L1.64844 24.7777" stroke="#4147D5" stroke-width="1.73288" stroke-linecap="round" stroke-linejoin="round"/>
</g>
<defs>
<clipPath id="clip0_1914_3046">
<rect width="30" height="30" fill="white"/>
</clipPath>
</defs>
</svg>
