<svg width="31" height="30" viewBox="0 0 31 30" fill="none" xmlns="http://www.w3.org/2000/svg">
<path d="M8.48913 21C9.10316 21 9.69205 20.7629 10.1262 20.341C10.5604 19.919 10.8043 19.3467 10.8043 18.75C10.8119 18.6752 10.8119 18.5998 10.8043 18.525L15.1107 14.34H15.4657H15.8207L18.3057 16.755C18.3057 16.755 18.3057 16.83 18.3057 16.875C18.3057 17.4717 18.5496 18.044 18.9838 18.466C19.418 18.8879 20.0068 19.125 20.6209 19.125C21.2349 19.125 21.8238 18.8879 22.258 18.466C22.6922 18.044 22.9361 17.4717 22.9361 16.875V16.755L28.5543 11.25C29.0123 11.25 29.4599 11.118 29.8406 10.8708C30.2213 10.6236 30.5181 10.2722 30.6933 9.86104C30.8686 9.4499 30.9144 8.9975 30.8251 8.56105C30.7357 8.12459 30.5152 7.72368 30.1915 7.40901C29.8677 7.09434 29.4551 6.88005 29.006 6.79323C28.5569 6.70642 28.0914 6.75097 27.6684 6.92127C27.2453 7.09157 26.8837 7.37996 26.6293 7.74997C26.3749 8.11998 26.2391 8.55499 26.2391 9C26.2316 9.07482 26.2316 9.15018 26.2391 9.225L20.6672 14.64H20.4202L17.75 12C17.75 11.4033 17.5061 10.831 17.0719 10.409C16.6377 9.98705 16.0488 9.75 15.4348 9.75C14.8207 9.75 14.2319 9.98705 13.7977 10.409C13.3635 10.831 13.1196 11.4033 13.1196 12L8.48913 16.5C7.8751 16.5 7.28621 16.7371 6.85202 17.159C6.41784 17.581 6.17391 18.1533 6.17391 18.75C6.17391 19.3467 6.41784 19.919 6.85202 20.341C7.28621 20.7629 7.8751 21 8.48913 21V21ZM29.3261 27H3.08696V1.5C3.08696 1.10218 2.92434 0.720644 2.63488 0.43934C2.34542 0.158035 1.95283 0 1.54348 0C1.13412 0 0.741533 0.158035 0.452074 0.43934C0.162616 0.720644 0 1.10218 0 1.5V28.5C0 28.8978 0.162616 29.2794 0.452074 29.5607C0.741533 29.842 1.13412 30 1.54348 30H29.3261C29.7354 30 30.128 29.842 30.4175 29.5607C30.707 29.2794 30.8696 28.8978 30.8696 28.5C30.8696 28.1022 30.707 27.7206 30.4175 27.4393C30.128 27.158 29.7354 27 29.3261 27Z" fill="#14B082"/>
</svg>
