<svg width="127" height="126" viewBox="0 0 127 126" fill="none" xmlns="http://www.w3.org/2000/svg">
<g clip-path="url(#clip0_1641_3403)">
<rect x="0.28125" width="126" height="126" rx="63" fill="white"/>
<mask id="mask0_1641_3403" style="mask-type:luminance" maskUnits="userSpaceOnUse" x="-1758" y="-1757" width="3639" height="3632">
<path d="M-1757.59 -1756.86H1880.92V1874.01H-1757.59V-1756.86Z" fill="white"/>
</mask>
<g mask="url(#mask0_1641_3403)">
<path d="M42.8631 72.6728C42.8631 72.6728 31.5946 67.9055 34.2889 52.6269C34.2889 52.6269 35.698 38.794 50.9474 26.1028C53.7943 23.7339 59.9481 20.4283 65.2783 22.3136C68.7763 23.5511 69.5922 29.1444 64.5033 37.5111C62.0582 41.5295 60.2561 44.9264 52.6623 52.1379C52.6623 52.1379 50.9163 53.727 51.667 54.6438C52.1595 55.2439 52.6774 55.316 54.7443 54.2161C54.7443 54.2161 62.8695 50.7935 73.3222 35.3923C73.3222 35.3923 81.0792 22.4361 73.1584 13.9616C73.1584 13.9616 67.4434 7.85036 56.5007 13.7984C56.5007 13.7984 41.393 20.8065 32.5747 37.6742C32.5747 37.6742 25.2853 50.9662 28.2469 63.6682C29.652 69.695 34.82 78.5399 47.6002 79.1504C47.6002 79.1504 45.1498 78.0919 42.8631 72.6728Z" fill="#E21B22"/>
<path d="M66.8675 83.2448C84.0157 82.7358 94.5191 70.8996 94.5191 70.8996C94.8251 70.6548 95.8666 69.5854 95.8666 69.5854C96.2492 69.066 95.878 68.5257 95.6058 68.3784C95.0618 68.0837 94.6419 68.4551 94.6419 68.4551C94.6419 68.4551 93.923 68.9967 93.6921 69.1883C82.1962 78.7446 69.4741 80.4105 61.5396 78.2332C46.6811 74.1548 48.8011 59.8378 48.8011 59.8378C50.2709 45.109 61.4171 37.9585 61.4171 37.9585C64.4183 34.4136 65.6428 28.4244 65.6428 28.4244C65.6428 28.4244 45.5272 35.3589 42.4319 57.1487C41.5195 63.5688 42.9423 75.5643 54.0061 80.3724C54.0061 80.3724 59.518 83.4629 66.8675 83.2448Z" fill="black"/>
<path d="M76.218 35.5127C76.218 35.5127 82.3029 36.6676 83.5676 42.6835C84.269 46.0211 83.5264 50.0579 79.423 55.6807C75.0982 61.6066 68.4597 68.2703 55.4766 72.671C55.4766 72.671 59.4779 75.6856 62.5812 76.3379C62.5812 76.3379 86.8437 65.9861 91.0389 49.7324C92.1175 45.5534 92.283 37.5712 87.3648 32.8647C85.6499 31.2233 82.6491 28.9328 78.811 27.8735C78.811 27.8735 79.0864 30.7155 76.218 35.5127Z" fill="#00984B"/>
<path d="M22.6773 101.84V103.947H23.8513C24.156 103.947 24.3596 103.902 24.4622 103.81C24.5987 103.69 24.675 103.477 24.6909 103.173H24.8364V105.029H24.6909C24.6538 104.769 24.6174 104.603 24.5802 104.53C24.5332 104.438 24.4557 104.366 24.348 104.314C24.2401 104.261 24.0744 104.235 23.8513 104.235H22.6773V105.992C22.6773 106.228 22.6875 106.372 22.7089 106.423C22.7296 106.474 22.7665 106.515 22.8191 106.545C22.8717 106.575 22.9712 106.59 23.1188 106.59H24.0249C24.3265 106.59 24.5461 106.569 24.6828 106.527C24.8195 106.485 24.9512 106.403 25.0772 106.279C25.2397 106.117 25.4065 105.872 25.5775 105.544H25.7352L25.2738 106.881H21.1562V106.736H21.3455C21.4716 106.736 21.5911 106.706 21.704 106.645C21.7877 106.604 21.845 106.54 21.8756 106.457C21.9057 106.373 21.9208 106.201 21.9208 105.941V102.477C21.9208 102.139 21.8865 101.931 21.8183 101.852C21.7238 101.747 21.5661 101.695 21.3455 101.695H21.1562V101.549H25.2738L25.3329 102.717H25.1793C25.1242 102.437 25.0628 102.244 24.9964 102.139C24.9292 102.034 24.8301 101.954 24.6987 101.899C24.5934 101.86 24.4082 101.84 24.1431 101.84H22.6773Z" fill="black"/>
<path d="M27.6552 103.94C27.918 103.678 28.0732 103.527 28.1202 103.488C28.2387 103.388 28.366 103.311 28.5025 103.256C28.6391 103.2 28.7746 103.173 28.9082 103.173C29.1344 103.173 29.3289 103.239 29.4917 103.37C29.6546 103.501 29.7633 103.691 29.8189 103.94C30.0895 103.625 30.3177 103.419 30.5044 103.321C30.6909 103.222 30.8826 103.173 31.0797 103.173C31.2715 103.173 31.4416 103.222 31.5899 103.321C31.7384 103.419 31.8559 103.579 31.9424 103.802C32.0005 103.954 32.029 104.193 32.029 104.518V106.067C32.029 106.293 32.0465 106.447 32.0806 106.531C32.1068 106.589 32.1551 106.638 32.2261 106.678C32.2971 106.719 32.4128 106.74 32.5728 106.74V106.881H30.7922V106.74H30.8667C31.0216 106.74 31.1426 106.709 31.2293 106.649C31.2899 106.607 31.3334 106.54 31.3594 106.448C31.37 106.404 31.3751 106.277 31.3751 106.067V104.518C31.3751 104.225 31.3395 104.018 31.2687 103.896C31.1664 103.729 31.0022 103.645 30.776 103.645C30.637 103.645 30.4971 103.68 30.3563 103.749C30.2163 103.819 30.046 103.947 29.8462 104.136L29.8383 104.18L29.8462 104.349V106.067C29.8462 106.314 29.8601 106.467 29.8876 106.527C29.9152 106.588 29.9669 106.638 30.043 106.678C30.1196 106.719 30.2497 106.74 30.4334 106.74V106.881H28.6088V106.74C28.8084 106.74 28.9459 106.716 29.0204 106.669C29.0955 106.622 29.1473 106.551 29.1763 106.457C29.1897 106.412 29.196 106.282 29.196 106.067V104.518C29.196 104.225 29.1528 104.013 29.0659 103.885C28.9507 103.717 28.789 103.633 28.5815 103.633C28.4395 103.633 28.299 103.671 28.1596 103.747C27.942 103.862 27.7735 103.992 27.6552 104.136V106.067C27.6552 106.303 27.6719 106.457 27.7045 106.527C27.7376 106.598 27.7861 106.651 27.8506 106.686C27.915 106.722 28.0454 106.74 28.2427 106.74V106.881H26.4573V106.74C26.6231 106.74 26.7385 106.722 26.8042 106.686C26.8702 106.651 26.9202 106.594 26.9538 106.517C26.9882 106.44 27.0054 106.29 27.0054 106.067V104.691C27.0054 104.295 26.9932 104.04 26.9697 103.924C26.9515 103.838 26.9222 103.778 26.8831 103.745C26.8436 103.713 26.7901 103.696 26.7216 103.696C26.6481 103.696 26.5599 103.716 26.4573 103.755L26.3984 103.613L27.4862 103.173H27.6552V103.94Z" fill="black"/>
<path d="M34.1914 101.29C34.3021 101.29 34.3956 101.328 34.4734 101.406C34.551 101.483 34.5894 101.577 34.5894 101.686C34.5894 101.797 34.551 101.891 34.4734 101.97C34.3956 102.049 34.3021 102.088 34.1914 102.088C34.081 102.088 33.9863 102.049 33.9077 101.97C33.8289 101.891 33.7897 101.797 33.7897 101.686C33.7897 101.577 33.8281 101.483 33.9057 101.406C33.9835 101.328 34.0785 101.29 34.1914 101.29ZM34.5187 103.173V106.067C34.5187 106.293 34.5348 106.443 34.5679 106.517C34.6005 106.592 34.6493 106.648 34.7135 106.684C34.7776 106.721 34.8956 106.739 35.0662 106.739V106.881H33.3129V106.739C33.489 106.739 33.607 106.723 33.6676 106.688C33.7278 106.654 33.7758 106.598 33.8114 106.519C33.8465 106.441 33.8642 106.29 33.8642 106.067V104.679C33.8642 104.289 33.8526 104.036 33.8289 103.92C33.8107 103.836 33.7816 103.778 33.7422 103.745C33.7028 103.712 33.6492 103.696 33.5807 103.696C33.5072 103.696 33.4178 103.716 33.3129 103.755L33.2578 103.613L34.3451 103.173H34.5187Z" fill="black"/>
<path d="M36.9602 103.173V103.983C37.2624 103.443 37.5722 103.173 37.89 103.173C38.0345 103.173 38.1541 103.217 38.2486 103.304C38.3433 103.393 38.3903 103.494 38.3903 103.609C38.3903 103.712 38.3562 103.798 38.288 103.869C38.2195 103.94 38.1381 103.975 38.0436 103.975C37.9519 103.975 37.8486 103.93 37.7344 103.839C37.6199 103.749 37.5355 103.704 37.4802 103.704C37.4332 103.704 37.3816 103.73 37.3266 103.783C37.2083 103.89 37.0863 104.067 36.9602 104.313V106.039C36.9602 106.239 36.9849 106.39 37.0347 106.492C37.0693 106.562 37.1295 106.622 37.2164 106.669C37.3028 106.716 37.4279 106.74 37.5906 106.74V106.881H35.7423V106.74C35.9265 106.74 36.0632 106.711 36.1521 106.653C36.2181 106.611 36.2638 106.544 36.2903 106.452C36.3032 106.408 36.3098 106.281 36.3098 106.071V104.675C36.3098 104.256 36.3015 104.006 36.2845 103.926C36.2673 103.846 36.2358 103.788 36.1898 103.751C36.1438 103.714 36.0864 103.696 36.0185 103.696C35.9371 103.696 35.8449 103.716 35.7423 103.755L35.7031 103.613L36.7947 103.173H36.9602Z" fill="black"/>
<path d="M41.0408 106.106V104.733C40.6441 104.891 40.3879 105.002 40.2726 105.068C40.0649 105.183 39.9164 105.304 39.8272 105.429C39.7377 105.555 39.6933 105.693 39.6933 105.842C39.6933 106.031 39.7499 106.188 39.8628 106.312C39.9755 106.437 40.1056 106.499 40.2527 106.499C40.4523 106.499 40.7151 106.368 41.0408 106.106ZM41.0408 106.362C40.6703 106.647 40.4379 106.812 40.3431 106.857C40.2016 106.922 40.0505 106.955 39.8903 106.955C39.6404 106.955 39.4353 106.87 39.2736 106.699C39.1121 106.529 39.0312 106.305 39.0312 106.027C39.0312 105.852 39.0707 105.7 39.1495 105.571C39.2569 105.393 39.4444 105.225 39.7109 105.068C39.9773 104.911 40.4207 104.719 41.0408 104.493V104.352C41.0408 103.993 40.9839 103.747 40.8695 103.613C40.7552 103.479 40.589 103.412 40.3709 103.412C40.2054 103.412 40.074 103.457 39.977 103.546C39.8769 103.635 39.8272 103.737 39.8272 103.852L39.835 104.081C39.835 104.201 39.8039 104.295 39.7425 104.36C39.6806 104.426 39.5998 104.458 39.5 104.458C39.4029 104.458 39.3233 104.424 39.2617 104.356C39.2 104.288 39.1692 104.195 39.1692 104.077C39.1692 103.852 39.2844 103.644 39.5161 103.456C39.7468 103.267 40.0715 103.172 40.4892 103.172C40.8096 103.172 41.0723 103.226 41.2773 103.334C41.4319 103.415 41.5466 103.542 41.6201 103.715C41.6671 103.828 41.6911 104.059 41.6911 104.407V105.63C41.6911 105.974 41.6972 106.184 41.7106 106.261C41.7237 106.339 41.7455 106.391 41.7755 106.416C41.8056 106.443 41.8407 106.456 41.8801 106.456C41.9218 106.456 41.959 106.447 41.9903 106.428C42.0456 106.395 42.152 106.299 42.3094 106.141V106.362C42.0153 106.754 41.7344 106.951 41.4665 106.951C41.3374 106.951 41.2353 106.906 41.1593 106.817C41.0827 106.729 41.0433 106.576 41.0408 106.362Z" fill="black"/>
<path d="M44.0342 102.095V103.279H44.8774V103.554H44.0342V105.89C44.0342 106.123 44.0675 106.28 44.1345 106.362C44.2014 106.443 44.2874 106.483 44.3925 106.483C44.4791 106.483 44.563 106.457 44.6446 106.403C44.7257 106.349 44.7889 106.27 44.8339 106.165H44.9873C44.8953 106.422 44.7654 106.615 44.5974 106.745C44.4291 106.875 44.2558 106.939 44.0771 106.939C43.9561 106.939 43.8381 106.906 43.7226 106.839C43.6069 106.772 43.5218 106.677 43.4667 106.552C43.4113 106.428 43.3838 106.236 43.3838 105.976V103.554H42.8125V103.424C42.9568 103.367 43.1043 103.269 43.2557 103.131C43.4065 102.993 43.5412 102.831 43.6595 102.642C43.7199 102.542 43.804 102.36 43.9116 102.095H44.0342Z" fill="black"/>
<path d="M46.2391 104.409H47.9098C47.8969 104.178 47.8694 104.015 47.8269 103.921C47.7617 103.775 47.6634 103.659 47.5336 103.575C47.4032 103.491 47.2675 103.449 47.1257 103.449C46.9077 103.449 46.7129 103.534 46.5405 103.703C46.3685 103.872 46.2682 104.108 46.2391 104.409ZM46.2391 104.637C46.2366 105.172 46.3667 105.591 46.629 105.895C46.892 106.199 47.2005 106.351 47.555 106.351C47.7918 106.351 47.9972 106.286 48.1718 106.157C48.3469 106.027 48.4927 105.805 48.6115 105.49L48.7335 105.569C48.6779 105.928 48.5182 106.255 48.2527 106.55C47.9874 106.845 47.6551 106.992 47.2559 106.992C46.8223 106.992 46.4514 106.824 46.1423 106.487C45.8341 106.15 45.6797 105.697 45.6797 105.129C45.6797 104.513 45.8381 104.032 46.1545 103.687C46.4711 103.343 46.8683 103.17 47.3463 103.17C47.7509 103.17 48.0831 103.304 48.3431 103.569C48.6034 103.836 48.7335 104.191 48.7335 104.637H46.2391Z" fill="black"/>
<path d="M51.9485 103.174V104.401H51.8186C51.7188 104.015 51.5907 103.754 51.4343 103.614C51.2782 103.476 51.0788 103.406 50.8375 103.406C50.6535 103.406 50.5052 103.454 50.3923 103.551C50.2793 103.649 50.2225 103.756 50.2225 103.874C50.2225 104.021 50.2647 104.146 50.3486 104.251C50.4302 104.359 50.5957 104.473 50.8451 104.594L51.4207 104.872C51.9538 105.132 52.2206 105.474 52.2206 105.899C52.2206 106.227 52.0963 106.491 51.8482 106.691C51.5998 106.892 51.3221 106.992 51.0146 106.992C50.794 106.992 50.5419 106.953 50.2581 106.874C50.1714 106.848 50.1007 106.835 50.0454 106.835C49.985 106.835 49.9377 106.869 49.9034 106.937H49.7735V105.651H49.9034C49.9774 106.018 50.1176 106.295 50.3253 106.481C50.5328 106.667 50.7655 106.76 51.0227 106.76C51.2039 106.76 51.3517 106.707 51.4659 106.601C51.5803 106.495 51.6372 106.367 51.6372 106.217C51.6372 106.037 51.5735 105.885 51.4462 105.761C51.3186 105.638 51.0646 105.482 50.6839 105.293C50.3026 105.105 50.0534 104.934 49.9349 104.782C49.8167 104.633 49.7578 104.444 49.7578 104.216C49.7578 103.92 49.8596 103.672 50.0633 103.473C50.267 103.274 50.53 103.174 50.8532 103.174C50.9952 103.174 51.1672 103.204 51.3694 103.264C51.5035 103.304 51.5927 103.323 51.6372 103.323C51.6796 103.323 51.7122 103.314 51.7357 103.296C51.7592 103.278 51.7873 103.237 51.8186 103.174H51.9485Z" fill="black"/>
<path d="M58.2255 101.727C57.7475 101.727 57.3627 101.898 57.0711 102.238C56.7034 102.665 56.5197 103.319 56.5197 104.2C56.5197 105.062 56.706 105.727 57.0792 106.194C57.3677 106.553 57.7503 106.732 58.2255 106.732C58.7195 106.732 59.1175 106.553 59.4199 106.194C59.7742 105.769 59.9518 105.143 59.9518 104.314C59.9518 103.677 59.8543 103.141 59.66 102.706C59.5104 102.37 59.3113 102.123 59.0629 101.965C58.8148 101.806 58.5353 101.727 58.2255 101.727ZM60.0476 106.953C58.5447 107.288 57.5284 106.937 57.5284 106.937C57.1502 106.785 56.8505 106.623 56.6299 106.453C56.3093 106.199 56.0606 105.886 55.883 105.515C55.7059 105.144 55.6172 104.706 55.6172 104.2C55.6172 103.403 55.8759 102.741 56.3937 102.214C56.9109 101.687 57.5375 101.424 58.273 101.424C58.9717 101.424 59.5766 101.688 60.0875 102.216C60.5984 102.744 60.8539 103.411 60.8539 104.216C60.8539 104.868 60.6719 105.441 60.3083 105.934C60.1016 106.213 59.8608 106.442 59.5842 106.619L59.5235 106.656C59.5235 106.656 59.8427 106.665 59.949 106.642C60.3202 106.559 60.7326 106.364 61.029 106.099L61.1626 106.217C60.9031 106.47 60.7288 106.607 60.3563 106.828C60.2282 106.904 60.0476 106.953 60.0476 106.953Z" fill="black"/>
<path d="M64.9789 103.28V105.462C64.9789 105.879 64.9885 106.134 65.0084 106.227C65.0279 106.32 65.0595 106.385 65.1029 106.422C65.1464 106.459 65.1967 106.477 65.2548 106.477C65.3359 106.477 65.4279 106.455 65.5307 106.41L65.5856 106.548L64.5059 106.992H64.3288V106.229C64.0185 106.565 63.7825 106.776 63.6192 106.862C63.4568 106.949 63.2845 106.992 63.1033 106.992C62.9006 106.992 62.7253 106.933 62.5772 106.817C62.4286 106.701 62.3253 106.55 62.2679 106.367C62.2101 106.184 62.1813 105.924 62.1813 105.588V103.98C62.1813 103.81 62.1626 103.692 62.1262 103.626C62.0891 103.561 62.035 103.51 61.9625 103.475C61.8902 103.439 61.7593 103.423 61.5703 103.426V103.28H62.8352V105.691C62.8352 106.026 62.8936 106.247 63.0106 106.351C63.1273 106.456 63.2688 106.509 63.4343 106.509C63.5472 106.509 63.6751 106.473 63.8186 106.402C63.9619 106.332 64.1314 106.197 64.3288 105.997V103.957C64.3288 103.752 64.2914 103.614 64.2163 103.542C64.1415 103.47 63.9859 103.431 63.7494 103.426V103.28H64.9789Z" fill="black"/>
<path d="M68.3064 106.106V104.733C67.9099 104.891 67.6537 105.002 67.5383 105.068C67.3306 105.183 67.182 105.304 67.0928 105.429C67.0039 105.555 66.9589 105.693 66.9589 105.842C66.9589 106.031 67.0155 106.188 67.1279 106.312C67.2409 106.437 67.3712 106.499 67.5183 106.499C67.7179 106.499 67.9809 106.368 68.3064 106.106ZM68.3064 106.362C67.936 106.647 67.7033 106.812 67.6088 106.857C67.4673 106.922 67.3159 106.955 67.1557 106.955C66.9063 106.955 66.7009 106.87 66.5392 106.699C66.3775 106.529 66.2969 106.305 66.2969 106.027C66.2969 105.852 66.3363 105.7 66.4149 105.571C66.5228 105.393 66.71 105.225 66.9766 105.068C67.2431 104.911 67.6863 104.719 68.3064 104.493V104.352C68.3064 103.993 68.249 103.747 68.1348 103.613C68.0206 103.479 67.8549 103.412 67.6366 103.412C67.471 103.412 67.3397 103.457 67.2424 103.546C67.1431 103.635 67.0928 103.737 67.0928 103.852L67.1006 104.081C67.1006 104.201 67.0696 104.295 67.0079 104.36C66.9465 104.426 66.8656 104.458 66.7656 104.458C66.6686 104.458 66.5892 104.424 66.5273 104.356C66.4657 104.288 66.4346 104.195 66.4346 104.077C66.4346 103.852 66.5506 103.644 66.7818 103.456C67.0127 103.267 67.3371 103.172 67.7548 103.172C68.0754 103.172 68.3377 103.226 68.5429 103.334C68.698 103.415 68.8122 103.542 68.8858 103.715C68.9328 103.828 68.9565 104.059 68.9565 104.407V105.63C68.9565 105.974 68.9633 106.184 68.9762 106.261C68.9896 106.339 69.0111 106.391 69.0412 106.416C69.0715 106.443 69.1064 106.456 69.1458 106.456C69.1877 106.456 69.2246 106.447 69.2559 106.428C69.3113 106.395 69.4174 106.299 69.5751 106.141V106.362C69.281 106.754 68.9997 106.951 68.7321 106.951C68.6035 106.951 68.5009 106.906 68.4244 106.817C68.3483 106.729 68.3092 106.576 68.3064 106.362Z" fill="black"/>
<path d="M71.4796 101.29V106.067C71.4796 106.293 71.496 106.442 71.5286 106.516C71.5614 106.589 71.612 106.644 71.6807 106.682C71.7487 106.72 71.8763 106.739 72.063 106.739V106.881H70.2938V106.739C70.4588 106.739 70.5717 106.723 70.6324 106.688C70.6925 106.654 70.74 106.598 70.7741 106.519C70.8085 106.441 70.8254 106.29 70.8254 106.067V102.796C70.8254 102.389 70.8166 102.14 70.7981 102.046C70.7794 101.953 70.7496 101.89 70.7092 101.856C70.6685 101.822 70.6164 101.805 70.5533 101.805C70.485 101.805 70.3986 101.826 70.2938 101.868L70.2266 101.73L71.3024 101.29H71.4796Z" fill="black"/>
<path d="M73.793 101.29C73.9037 101.29 73.9974 101.328 74.0747 101.406C74.1523 101.483 74.1912 101.577 74.1912 101.686C74.1912 101.797 74.1523 101.891 74.0747 101.97C73.9974 102.049 73.9037 102.088 73.793 102.088C73.6826 102.088 73.5881 102.049 73.5095 101.97C73.4304 101.891 73.391 101.797 73.391 101.686C73.391 101.577 73.4297 101.483 73.5075 101.406C73.5851 101.328 73.6803 101.29 73.793 101.29ZM74.1202 103.173V106.067C74.1202 106.293 74.1366 106.443 74.1692 106.517C74.2023 106.592 74.2511 106.648 74.315 106.684C74.3795 106.721 74.4972 106.739 74.668 106.739V106.881H72.9142V106.739C73.0906 106.739 73.2088 106.723 73.269 106.688C73.3296 106.654 73.3771 106.598 73.4127 106.519C73.4484 106.441 73.466 106.29 73.466 106.067V104.679C73.466 104.289 73.4542 104.036 73.4304 103.92C73.412 103.836 73.3834 103.778 73.344 103.745C73.3043 103.712 73.2508 103.696 73.1823 103.696C73.1088 103.696 73.0196 103.716 72.9142 103.755L72.8594 103.613L73.9469 103.173H74.1202Z" fill="black"/>
<path d="M76.573 102.095V103.279H77.4167V103.554H76.573V105.89C76.573 106.123 76.6068 106.28 76.6736 106.362C76.7408 106.443 76.8267 106.483 76.9318 106.483C77.0185 106.483 77.1026 106.457 77.184 106.403C77.2651 106.349 77.328 106.27 77.3732 106.165H77.5266C77.4346 106.422 77.3047 106.615 77.1365 106.745C76.9682 106.875 76.7951 106.939 76.6164 106.939C76.4954 106.939 76.3774 106.906 76.2619 106.839C76.1462 106.772 76.0611 106.677 76.0057 106.552C75.9507 106.428 75.9231 106.236 75.9231 105.976V103.554H75.3516V103.424C75.4958 103.367 75.6437 103.269 75.7953 103.131C75.9459 102.993 76.0808 102.831 76.1988 102.642C76.2594 102.542 76.3431 102.36 76.4509 102.095H76.573Z" fill="black"/>
<path d="M77.9609 103.278H79.6437V103.423H79.5611C79.4426 103.423 79.3542 103.448 79.2948 103.499C79.2357 103.551 79.2064 103.614 79.2064 103.691C79.2064 103.792 79.2496 103.934 79.3362 104.115L80.215 105.931L81.0226 103.942C81.0673 103.835 81.0898 103.728 81.0898 103.623C81.0898 103.576 81.0804 103.541 81.0623 103.517C81.0408 103.489 81.0084 103.465 80.9637 103.448C80.9187 103.431 80.8402 103.423 80.727 103.423V103.278H81.9014V103.423C81.8044 103.433 81.7293 103.454 81.6768 103.486C81.6242 103.517 81.5668 103.576 81.5037 103.662C81.4802 103.699 81.4352 103.8 81.3695 103.966L79.9 107.559C79.7577 107.908 79.572 108.171 79.3423 108.349C79.1124 108.528 78.8913 108.617 78.6785 108.617C78.5231 108.617 78.3958 108.572 78.2962 108.483C78.1962 108.395 78.1461 108.292 78.1461 108.177C78.1461 108.067 78.1825 107.978 78.2545 107.911C78.3268 107.844 78.4264 107.811 78.5524 107.811C78.6391 107.811 78.7571 107.84 78.9067 107.898C79.0118 107.937 79.0775 107.957 79.1038 107.957C79.1829 107.957 79.2688 107.916 79.3618 107.835C79.455 107.753 79.549 107.596 79.6437 107.363L79.9 106.738L78.6035 104.02C78.5641 103.939 78.5009 103.838 78.4142 103.718C78.3483 103.626 78.2947 103.565 78.2525 103.533C78.1921 103.491 78.0951 103.454 77.9609 103.423V103.278Z" fill="black"/>
<path d="M88.0743 106.881L86.0097 102.394V105.957C86.0097 106.285 86.0453 106.489 86.1161 106.57C86.2133 106.681 86.3667 106.736 86.5769 106.736H86.7662V106.881H84.9062V106.736H85.0955C85.3211 106.736 85.4816 106.668 85.5761 106.531C85.634 106.447 85.6628 106.256 85.6628 105.957V102.473C85.6628 102.237 85.6365 102.067 85.5839 101.962C85.5473 101.886 85.4793 101.822 85.381 101.771C85.2825 101.72 85.1241 101.695 84.9062 101.695V101.549H86.4193L88.3578 105.721L90.2652 101.549H91.7782V101.695H91.5933C91.3643 101.695 91.2029 101.763 91.1084 101.899C91.0503 101.983 91.0217 102.174 91.0217 102.473V105.957C91.0217 106.285 91.0584 106.489 91.1321 106.57C91.2294 106.681 91.383 106.736 91.5933 106.736H91.7782V106.881H89.5087V106.736H89.698C89.9264 106.736 90.0866 106.668 90.1785 106.531C90.2364 106.447 90.2652 106.256 90.2652 105.957V102.394L88.2044 106.881H88.0743Z" fill="black"/>
<path d="M94.658 106.106V104.733C94.2613 104.891 94.0048 105.002 93.8893 105.068C93.6819 105.183 93.5336 105.304 93.4439 105.429C93.3549 105.555 93.3102 105.693 93.3102 105.842C93.3102 106.031 93.3665 106.188 93.4795 106.312C93.5924 106.437 93.7228 106.499 93.8699 106.499C94.0695 106.499 94.332 106.368 94.658 106.106ZM94.658 106.362C94.2875 106.647 94.0548 106.812 93.9603 106.857C93.8188 106.922 93.6675 106.955 93.507 106.955C93.2579 106.955 93.0522 106.87 92.8908 106.699C92.729 106.529 92.6484 106.305 92.6484 106.027C92.6484 105.852 92.6873 105.7 92.7664 105.571C92.8738 105.393 93.0616 105.225 93.3279 105.068C93.5947 104.911 94.0379 104.719 94.658 104.493V104.352C94.658 103.993 94.6006 103.747 94.4864 103.613C94.3722 103.479 94.2059 103.412 93.9879 103.412C93.8221 103.412 93.6912 103.457 93.5939 103.546C93.4941 103.635 93.4439 103.737 93.4439 103.852L93.4522 104.081C93.4522 104.201 93.4211 104.295 93.3595 104.36C93.2976 104.426 93.217 104.458 93.1171 104.458C93.0199 104.458 92.9408 104.424 92.8789 104.356C92.8167 104.288 92.7861 104.195 92.7861 104.077C92.7861 103.852 92.9016 103.644 93.1328 103.456C93.3643 103.267 93.6887 103.172 94.1064 103.172C94.4268 103.172 94.6893 103.226 94.8942 103.334C95.0491 103.415 95.1633 103.542 95.2373 103.715C95.2843 103.828 95.3078 104.059 95.3078 104.407V105.63C95.3078 105.974 95.3149 106.184 95.3278 106.261C95.3407 106.339 95.3627 106.391 95.3925 106.416C95.423 106.443 95.4579 106.456 95.4968 106.456C95.5393 106.456 95.5759 106.447 95.6075 106.428C95.6626 106.395 95.769 106.299 95.9266 106.141V106.362C95.6325 106.754 95.3513 106.951 95.0832 106.951C94.9546 106.951 94.8523 106.906 94.776 106.817C94.6999 106.729 94.6607 106.576 94.658 106.362Z" fill="black"/>
<path d="M97.6477 103.173V103.983C97.9494 103.443 98.2597 103.173 98.5775 103.173C98.722 103.173 98.8418 103.217 98.9363 103.304C99.0308 103.393 99.0778 103.494 99.0778 103.609C99.0778 103.712 99.0437 103.798 98.9757 103.869C98.907 103.94 98.8256 103.975 98.7311 103.975C98.6392 103.975 98.5363 103.93 98.4219 103.839C98.3074 103.749 98.223 103.704 98.1677 103.704C98.1207 103.704 98.0691 103.73 98.0141 103.783C97.8958 103.89 97.7738 104.067 97.6477 104.313V106.039C97.6477 106.239 97.6724 106.39 97.7225 106.492C97.7566 106.562 97.817 106.622 97.9039 106.669C97.9903 106.716 98.1154 106.74 98.2781 106.74V106.881H96.43V106.74C96.6135 106.74 96.7504 106.711 96.8399 106.653C96.9053 106.611 96.9513 106.544 96.9778 106.452C96.9907 106.408 96.9973 106.281 96.9973 106.071V104.675C96.9973 104.256 96.9892 104.006 96.972 103.926C96.9546 103.846 96.923 103.788 96.8773 103.751C96.8315 103.714 96.7742 103.696 96.706 103.696C96.6243 103.696 96.5326 103.716 96.43 103.755L96.3906 103.613L97.4822 103.173H97.6477Z" fill="black"/>
<path d="M100.753 101.29V104.876L101.671 104.038C101.866 103.86 101.979 103.747 102.01 103.7C102.031 103.669 102.042 103.637 102.042 103.606C102.042 103.554 102.02 103.508 101.977 103.47C101.934 103.432 101.862 103.411 101.762 103.405V103.279H103.33V103.405C103.115 103.411 102.935 103.443 102.792 103.503C102.649 103.564 102.492 103.671 102.322 103.826L101.395 104.679L102.322 105.847C102.579 106.17 102.752 106.374 102.842 106.461C102.968 106.584 103.078 106.664 103.173 106.7C103.238 106.727 103.352 106.739 103.515 106.739V106.881H101.762V106.739C101.862 106.737 101.929 106.722 101.965 106.695C102 106.667 102.018 106.628 102.018 106.578C102.018 106.518 101.965 106.421 101.86 106.287L100.753 104.876V106.071C100.753 106.305 100.769 106.458 100.802 106.531C100.835 106.605 100.882 106.657 100.942 106.688C101.003 106.72 101.134 106.737 101.336 106.739V106.881H99.5V106.739C99.6837 106.739 99.8217 106.717 99.9139 106.673C99.9687 106.644 100.011 106.599 100.04 106.539C100.079 106.452 100.099 106.303 100.099 106.09V102.811C100.099 102.394 100.089 102.14 100.072 102.046C100.053 101.953 100.023 101.889 99.9808 101.854C99.9386 101.819 99.8838 101.801 99.8153 101.801C99.76 101.801 99.6776 101.823 99.5672 101.868L99.5 101.73L100.572 101.29H100.753Z" fill="black"/>
<path d="M52.9195 97.3897C52.8634 97.2243 53.0486 97.1313 53.2144 97.093C53.249 97.0851 53.2968 97.0824 53.3584 97.0851L53.3817 96.9341C53.3928 96.8592 53.3963 96.8123 53.392 96.7932C53.3801 96.743 53.319 96.7301 53.2091 96.7551C53.0246 96.798 52.8847 96.9079 52.7907 97.0844C52.6957 97.2614 52.6648 97.4205 52.6979 97.5632C52.7202 97.6595 52.7917 97.7332 52.9122 97.7833C52.7793 97.9089 52.7424 98.101 52.8025 98.3605L52.8124 98.4023C52.9279 98.1676 53.0646 97.9939 53.2227 97.8819C53.3167 97.8161 53.4138 97.7662 53.5151 97.7311L53.5691 97.3688C53.4787 97.4172 53.3976 97.4497 53.3261 97.4661C53.1631 97.504 52.9721 97.5453 52.9195 97.3897ZM21.706 91.9939C21.8535 91.9939 21.9725 91.8695 21.9725 91.716C21.9725 91.5624 21.8535 91.4381 21.706 91.4381C21.5584 91.4381 21.4394 91.5624 21.4394 91.716C21.4394 91.8695 21.5584 91.9939 21.706 91.9939ZM20.9785 92.015C21.1256 92.015 21.2448 91.8905 21.2448 91.7374C21.2448 91.5839 21.1256 91.4596 20.9785 91.4596C20.831 91.4596 20.7117 91.5839 20.7117 91.7374C20.7117 91.8905 20.831 92.015 20.9785 92.015ZM29.6498 97.6041C29.5022 97.6041 29.3832 97.7279 29.3832 97.8814C29.3832 98.0352 29.5022 98.1593 29.6498 98.1593C29.7973 98.1593 29.9164 98.0352 29.9164 97.8814C29.9164 97.7279 29.7973 97.6041 29.6498 97.6041ZM28.9221 97.6252C28.7748 97.6252 28.6555 97.7493 28.6555 97.9028C28.6555 98.0564 28.7748 98.1807 28.9221 98.1807C29.0694 98.1807 29.1887 98.0564 29.1887 97.9028C29.1887 97.7493 29.0694 97.6252 28.9221 97.6252ZM33.6216 92.8116C33.7691 92.8116 33.8884 92.6878 33.8884 92.5339C33.8884 92.3804 33.7691 92.2563 33.6216 92.2563C33.4743 92.2563 33.355 92.3804 33.355 92.5339C33.355 92.6878 33.4743 92.8116 33.6216 92.8116ZM32.8941 92.833C33.0412 92.833 33.1604 92.7087 33.1604 92.5551C33.1604 92.4016 33.0412 92.2778 32.8941 92.2778C32.7468 92.2778 32.6273 92.4016 32.6273 92.5551C32.6273 92.7087 32.7468 92.833 32.8941 92.833ZM61.8086 92.8537C61.9561 92.8537 62.0754 92.7296 62.0754 92.5758C62.0754 92.4222 61.9561 92.2982 61.8086 92.2982C61.6613 92.2982 61.542 92.4222 61.542 92.5758C61.542 92.7296 61.6613 92.8537 61.8086 92.8537ZM61.0811 92.8746C61.2282 92.8746 61.3475 92.7505 61.3475 92.5967C61.3475 92.4432 61.2282 92.3191 61.0811 92.3191C60.9336 92.3191 60.8146 92.4432 60.8146 92.5967C60.8146 92.7505 60.9336 92.8746 61.0811 92.8746ZM88.5589 92.0571C88.706 92.0571 88.8252 91.9328 88.8252 91.7793C88.8252 91.6257 88.706 91.5014 88.5589 91.5014C88.4111 91.5014 88.2923 91.6257 88.2923 91.7793C88.2923 91.9328 88.4111 92.0571 88.5589 92.0571ZM76.4788 97.5862C76.3219 97.5862 76.1948 97.7183 76.1948 97.8814C76.1948 98.0451 76.3219 98.1769 76.4788 98.1769C76.6355 98.1769 76.7621 98.0451 76.7621 97.8814C76.7621 97.7183 76.6355 97.5862 76.4788 97.5862ZM87.831 92.0781C87.9785 92.0781 88.0978 91.9538 88.0978 91.8002C88.0978 91.6466 87.9785 91.5223 87.831 91.5223C87.6834 91.5223 87.5644 91.6466 87.5644 91.8002C87.5644 91.9538 87.6834 92.0781 87.831 92.0781ZM39.6809 94.5264L39.4808 95.2813C40.2484 95.6272 40.0956 96.2773 39.9672 96.5526C39.6991 97.1265 39.3502 97.4081 39.0189 97.6197C38.1171 98.1943 37.4847 97.1999 37.4847 97.1999L37.3482 97.3781C37.8106 98.3433 38.4042 98.3017 38.8191 98.217C40.0183 97.9727 40.3116 96.7911 40.3116 96.7911C40.6899 95.4071 39.6809 94.5264 39.6809 94.5264ZM54.0449 95.6953H53.4931L54.1076 95.0977C54.3438 95.5224 54.0449 95.6953 54.0449 95.6953ZM54.4864 94.39C55.3058 93.3201 54.9957 91.0397 54.9957 91.0397H54.7436L54.0025 91.3229L53.9555 91.6061H54.5859C54.712 93.2258 54.1447 94.1227 54.1447 94.1227C53.9712 93.7452 52.8836 92.487 52.8836 92.487C52.5686 92.1461 52.3626 92.1754 52.2532 92.2982C51.6938 92.9225 52.4263 93.5251 52.4263 93.5251C52.6656 93.6797 52.9837 93.2677 52.9837 93.2677L53.8559 94.3743C54.0657 94.6101 53.9345 94.7359 53.9345 94.7359C53.6823 95.0821 52.8786 95.6797 52.8786 95.6797V96.1043H54.2077C55.0743 95.6482 54.4864 94.7203 54.4864 94.7203C54.41 94.5357 54.4864 94.39 54.4864 94.39ZM61.8048 95.8998C61.8048 95.8998 61.2843 95.9313 61.0953 95.6482C61.0953 95.6482 60.922 95.1134 61.4735 94.8461C61.4735 94.8461 62.0885 95.2707 62.1669 95.5695C62.1669 95.5695 62.3407 95.8998 61.8048 95.8998ZM61.9463 94.4059C61.5526 94.0284 61.6787 93.6033 61.6787 93.6033C60.9692 94.1696 61.0796 94.28 61.0796 94.28L61.1898 94.5158C60.9692 94.7674 60.7959 94.9876 60.7959 94.9876C59.9289 96.3559 61.6312 96.3244 61.6312 96.3244C62.6874 96.3716 62.6874 95.5695 62.6874 95.5695C62.6712 94.9248 61.9463 94.4059 61.9463 94.4059ZM64.6365 93.4881V93.7606L65.3195 93.75L65.2975 95.746C63.8143 96.4934 63.8274 95.6691 63.8274 95.6691V95.2289L63.5015 95.5329L63.4909 95.9629C63.4909 96.4268 64.994 96.3928 64.994 96.3928C65.7569 96.36 65.8137 95.9417 65.8137 95.9417L65.8395 93.0019L65.5835 92.9941L64.6365 93.4881ZM68.2669 95.3338C68.1408 94.7833 68.4246 94.799 68.4246 94.799C68.8183 94.8146 68.8344 95.6797 68.8344 95.6797C68.4246 95.6482 68.2669 95.3338 68.2669 95.3338ZM81.7433 95.6716L81.6955 91.3547H81.2854C80.5557 91.7402 80.5148 91.7498 80.5135 91.7483L80.5188 92.0934H81.1073L81.1649 95.365C81.1649 95.365 81.1548 95.6588 80.6821 95.6691L78.5434 95.6797C77.0279 94.1671 76.3424 94.075 76.3424 94.075C75.5647 93.9492 75.239 94.8827 75.239 94.8827L75.6068 94.9038C75.6068 94.9038 75.8795 94.4739 76.5099 94.8617C76.5099 94.8617 77.1881 95.3441 77.578 95.6716H69.1942C69.1942 95.6716 69.2756 94.4528 68.7238 94.1696C68.7238 94.1696 68.1724 93.9134 67.9357 94.6575C67.8162 95.0345 67.6575 96.0362 68.5823 96.1043C68.5823 96.1043 68.7137 96.1204 68.8291 96.1098C68.8291 96.1098 68.4615 97.3887 67.6315 97.3572C67.6315 97.3572 66.8009 97.4515 66.1604 96.5188L66.076 96.6966C66.076 96.6966 66.3704 97.777 67.4841 97.8504C67.4841 97.8504 68.8764 98.0549 69.1076 96.1043H82.1766L82.1804 95.9036C81.7392 95.9036 81.7433 95.6716 81.7433 95.6716ZM35.9873 95.9157V96.099H37.5375L37.5395 95.9076C37.2128 95.9197 37.0984 95.6681 37.0984 95.6681L37.0592 91.36L36.6125 91.3491C35.8613 91.69 35.8668 91.7054 35.8668 91.7054L35.8714 92.0834L36.4657 92.0887L36.4717 95.6716C36.4442 95.8408 35.9873 95.9157 35.9873 95.9157ZM57.4727 95.6716L57.4505 91.3547H57.0472L56.2432 91.7578L56.2488 92.0934H56.8375L56.8595 95.6716C56.8595 95.8683 56.3602 95.9104 56.3602 95.9104L56.3614 96.099H57.922L57.9139 95.9104C57.4611 95.8776 57.4727 95.6716 57.4727 95.6716ZM84.4383 95.6641L84.3911 91.3584L84.0128 91.3544L83.2088 91.779L83.2138 92.0831L83.7841 92.074L83.8273 95.6641C83.8038 95.8605 83.3114 95.9076 83.3114 95.9076L83.3035 96.099L84.9348 96.0965V95.9049C84.4818 95.9207 84.4383 95.6641 84.4383 95.6641ZM50.4484 95.8527L49.8415 95.4512C49.8415 95.4512 49.9205 94.9876 50.1962 94.8617C50.1962 94.8617 50.6535 94.9326 50.748 95.5382C50.748 95.5382 50.8266 96.0572 50.4484 95.8527ZM50.7981 94.6676C50.4198 94.1013 49.9471 94.3743 49.9471 94.3743C49.5688 94.6469 49.3452 95.4568 49.3452 95.4568C49.2979 95.5718 49.0928 95.6716 49.0928 95.6716C49.0928 95.6716 47.3276 95.6953 46.8864 95.6797L42.6269 95.6716C42.2329 95.656 42.2759 95.3809 42.2759 95.3809L42.3194 91.3584L41.9252 91.3544C41.1411 91.716 41.1411 91.712 41.1411 91.712L41.1373 92.0934L41.7086 92.0975L41.693 95.4437C41.6771 95.9941 42.2918 96.0887 42.2918 96.0887L49.0958 96.1358L49.5893 95.8211C49.7578 95.9681 49.9471 96.1043 49.9471 96.1043C50.4408 96.2301 51.1655 96.1459 51.1655 96.1459C51.197 95.9361 51.1655 95.6217 51.1655 95.6217C51.097 95.1083 50.7981 94.6676 50.7981 94.6676ZM20.8878 94.5317C21.2107 94.0519 21.6759 93.9575 21.6759 93.9575L21.6916 94.9011C21.2188 94.9011 20.8878 94.5317 20.8878 94.5317ZM34.159 95.6532L34.1747 93.7528H33.7226C32.8982 94.3153 32.9035 94.3166 32.9035 94.3166L32.8982 94.5745L33.5756 94.5577L33.5837 95.365C33.5731 95.6482 33.355 95.6588 33.355 95.6588L31.322 95.6681C30.9948 95.652 31.0013 95.365 31.0013 95.365V93.7712L30.6835 93.7647C29.8244 94.3073 29.8244 94.306 29.8244 94.306V94.5473H30.3878L30.3818 95.3547C30.3603 95.6376 30.0806 95.6797 30.0806 95.6797L22.6962 95.6757C22.255 95.66 22.2747 95.2132 22.2747 95.2132L22.2669 92.5498L21.8727 92.5458L20.998 93.0007L20.9939 93.1711L21.6284 93.1686V93.4565C21.2661 93.5508 20.8719 93.9129 20.8719 93.9129C20.3203 94.4059 20.3519 94.888 20.3519 94.888C20.5096 95.2654 21.2502 95.6429 21.2502 95.6429L21.6284 95.3441C21.5971 95.7531 22.0597 96.0834 22.0597 96.0834L22.3849 96.0887L34.75 96.0806L34.745 95.9182C34.1565 95.9288 34.159 95.6532 34.159 95.6532ZM92.7207 95.8055L92.1143 95.4044C92.1143 95.4044 92.1929 94.9404 92.4685 94.8146C92.4685 94.8146 92.8685 94.8176 92.9991 95.3872C92.9991 95.3872 93.1346 95.9747 92.7207 95.8055ZM87.5356 94.5473C87.8587 94.0672 88.3237 93.9729 88.3237 93.9729L88.3391 94.9165C87.8661 94.9165 87.5356 94.5473 87.5356 94.5473ZM93.0704 94.6207C92.8359 94.1159 92.4124 94.2117 92.2194 94.3269C91.8189 94.5665 91.6228 95.4568 91.6228 95.4568C91.5584 95.6716 91.3575 95.6716 91.3575 95.6716C91.3575 95.6716 89.5923 95.6875 89.1509 95.6716C88.7098 95.656 88.7254 95.2236 88.7254 95.2236L88.7413 92.4709L88.4965 92.4749L87.6379 92.9903L87.6301 93.1711H88.2643L88.2547 93.4598C87.9153 93.5307 87.6718 93.7505 87.5118 93.9026C86.9757 94.4112 86.9916 94.8776 86.9916 94.8776C87.149 95.2551 87.8901 95.6325 87.8901 95.6325L88.2683 95.3338C88.237 95.7425 88.7098 96.0887 88.7098 96.0887H91.3681L91.8621 95.774C92.0301 95.9212 92.2194 96.0572 92.2194 96.0572C92.7131 96.183 93.4383 96.099 93.4383 96.099C93.4696 95.889 93.4454 95.6716 93.4454 95.6716C93.3051 95.1517 93.1879 94.8736 93.0704 94.6207ZM101.752 95.6757H100.456C99.7938 95.2826 100.089 94.631 100.089 94.631C100.3 94.2853 100.605 94.3118 100.778 94.3428C101.188 94.4162 101.613 94.8199 101.613 94.8199C101.613 94.8199 101.511 93.8605 100.846 93.7606C100.443 93.7004 99.643 93.7662 99.5113 94.6941C99.4744 94.9568 99.459 95.3885 99.7819 95.6716L98.0928 95.6691C97.4308 95.5957 97.494 95.2498 97.494 95.2498L97.4417 92.45L97.0829 92.4631L96.3382 93.0057V93.163L97.095 93.1671V94.4371C96.811 95.3416 96.6139 95.4828 96.6139 95.4828C96.2672 93.926 95.0774 92.8015 95.0774 92.8015C94.5827 92.308 94.4662 92.7528 94.447 92.9114C94.3504 93.7079 95.0458 94.075 95.0458 94.075L95.1719 93.7768C95.4713 94.0912 95.7108 94.3113 95.8811 94.6888C96.2503 95.5062 96.1985 95.6618 96.0388 95.9313C95.6585 96.5738 94.1003 96.7019 94.1003 96.7019V96.9142L95.4872 96.9064C96.4327 96.5919 97.074 95.2969 97.074 95.2969C97.2001 96.1199 97.5885 96.099 97.5885 96.099H102.338L101.752 95.6757Z" fill="black"/>
</g>
</g>
<defs>
<clipPath id="clip0_1641_3403">
<rect x="0.28125" width="126" height="126" rx="63" fill="white"/>
</clipPath>
</defs>
</svg>
