<svg width="103" height="102" viewBox="0 0 103 102" fill="none" xmlns="http://www.w3.org/2000/svg">
<g clip-path="url(#clip0_1651_3263)">
<rect x="0.273438" width="102" height="102" rx="51" fill="white"/>
<mask id="mask0_1651_3263" style="mask-type:luminance" maskUnits="userSpaceOnUse" x="-1423" y="-1423" width="2946" height="2941">
<path d="M-1422.77 -1422.22H1522.69V1517.06H-1422.77V-1422.22Z" fill="white"/>
</mask>
<g mask="url(#mask0_1651_3263)">
<path d="M34.7411 58.8305C34.7411 58.8305 25.619 54.9712 27.8001 42.6028C27.8001 42.6028 28.9408 31.4047 41.2855 21.1309C43.5901 19.2133 48.5719 16.5373 52.8867 18.0635C55.7185 19.0653 56.3789 23.5932 52.2594 30.3662C50.28 33.6192 48.8212 36.3691 42.6738 42.207C42.6738 42.207 41.2604 43.4933 41.8681 44.2355C42.2667 44.7213 42.6861 44.7797 44.3592 43.8893C44.3592 43.8893 50.9368 41.1187 59.3984 28.651C59.3984 28.651 65.678 18.1627 59.2659 11.3023C59.2659 11.3023 54.6395 6.35514 45.781 11.1703C45.781 11.1703 33.5511 16.8435 26.4124 30.4983C26.4124 30.4983 20.5115 41.2585 22.909 51.5411C24.0464 56.4198 28.23 63.5801 38.5759 64.0742C38.5759 64.0742 36.5922 63.2173 34.7411 58.8305Z" fill="#E21B22"/>
<path d="M54.1773 67.3876C68.0592 66.9754 76.562 57.3938 76.562 57.3938C76.8097 57.1956 77.6528 56.3299 77.6528 56.3299C77.9625 55.9095 77.662 55.472 77.4417 55.3528C77.0013 55.1142 76.6614 55.4149 76.6614 55.4149C76.6614 55.4149 76.0794 55.8533 75.8925 56.0085C66.5863 63.7445 56.2874 65.0931 49.8643 63.3305C37.836 60.029 39.5521 48.439 39.5521 48.439C40.742 36.5157 49.7651 30.7272 49.7651 30.7272C52.1947 27.8575 53.1859 23.0091 53.1859 23.0091C53.1859 23.0091 36.9018 28.6227 34.3961 46.2621C33.6575 51.4593 34.8093 61.17 43.7658 65.0623C43.7658 65.0623 48.2277 67.5641 54.1773 67.3876Z" fill="black"/>
<path d="M61.736 28.7479C61.736 28.7479 66.6619 29.6828 67.6857 34.5528C68.2535 37.2547 67.6523 40.5226 64.3305 45.0744C60.8295 49.8716 55.4555 55.266 44.9453 58.8284C44.9453 58.8284 48.1845 61.2688 50.6967 61.7969C50.6967 61.7969 70.3378 53.4169 73.7339 40.2591C74.6071 36.8761 74.741 30.4144 70.7596 26.6043C69.3713 25.2755 66.9421 23.4213 63.8351 22.5638C63.8351 22.5638 64.058 24.8644 61.736 28.7479Z" fill="#00984B"/>
<path d="M18.3954 82.4408V84.1468H19.3457C19.5924 84.1468 19.7573 84.1101 19.8403 84.0355C19.9508 83.9382 20.0126 83.7663 20.0254 83.5199H20.1433V85.0222H20.0254C19.9954 84.8122 19.9659 84.6775 19.9359 84.6181C19.8978 84.5438 19.835 84.4856 19.7479 84.4432C19.6605 84.4007 19.5264 84.3793 19.3457 84.3793H18.3954V85.8022C18.3954 85.9932 18.4036 86.1096 18.421 86.1508C18.4378 86.1922 18.4676 86.2253 18.5102 86.2494C18.5527 86.2739 18.6333 86.2859 18.7528 86.2859H19.4863C19.7305 86.2859 19.9082 86.2694 20.0189 86.2351C20.1296 86.2014 20.2361 86.1347 20.3382 86.0345C20.4697 85.9032 20.6047 85.7046 20.7432 85.4395H20.8708L20.4973 86.5215H17.1641V86.4039H17.3173C17.4193 86.4039 17.5161 86.3796 17.6075 86.3308C17.6752 86.297 17.7217 86.2459 17.7464 86.1782C17.7707 86.1102 17.783 85.971 17.783 85.7609V82.9564C17.783 82.6829 17.7552 82.5141 17.7 82.4504C17.6235 82.3659 17.4958 82.3232 17.3173 82.3232H17.1641V82.2054H20.4973L20.5452 83.1509H20.4208C20.3762 82.9237 20.3265 82.7678 20.2727 82.6829C20.2183 82.598 20.1382 82.5332 20.0318 82.4888C19.9465 82.4569 19.7966 82.4408 19.582 82.4408H18.3954Z" fill="black"/>
<path d="M22.4315 84.1407C22.6442 83.9286 22.7698 83.8063 22.8078 83.7745C22.9038 83.6941 23.0069 83.6314 23.1173 83.5867C23.228 83.542 23.3376 83.5199 23.4458 83.5199C23.6289 83.5199 23.7864 83.5732 23.9181 83.6792C24.05 83.7855 24.138 83.9392 24.183 84.1407C24.4021 83.8861 24.5868 83.719 24.7379 83.6394C24.8889 83.5598 25.0441 83.5199 25.2037 83.5199C25.3589 83.5199 25.4966 83.5598 25.6167 83.6394C25.7369 83.719 25.832 83.8488 25.902 84.0292C25.949 84.1525 25.9722 84.3456 25.9722 84.6085V85.8628C25.9722 86.0453 25.9863 86.1706 26.0139 86.2382C26.0352 86.2851 26.0742 86.3249 26.1317 86.3576C26.1892 86.3906 26.2829 86.4072 26.4123 86.4072V86.5215H24.9709V86.4072H25.0312C25.1566 86.4072 25.2546 86.3827 25.3248 86.3339C25.3739 86.3 25.409 86.2457 25.4301 86.1714C25.4387 86.1355 25.4428 86.0328 25.4428 85.8628V84.6085C25.4428 84.3711 25.4139 84.2035 25.3567 84.1056C25.2738 83.97 25.1409 83.9019 24.9578 83.9019C24.8453 83.9019 24.732 83.9304 24.6181 83.9862C24.5047 84.0427 24.3669 84.1468 24.2051 84.2997L24.1987 84.3348L24.2051 84.4717V85.8628C24.2051 86.0624 24.2163 86.1863 24.2386 86.2351C24.2609 86.2843 24.3029 86.3249 24.3644 86.3576C24.4264 86.3906 24.5317 86.4072 24.6804 86.4072V86.5215H23.2034V86.4072C23.365 86.4072 23.4763 86.3878 23.5366 86.3496C23.5974 86.3119 23.6393 86.2543 23.6628 86.178C23.6737 86.142 23.6788 86.0369 23.6788 85.8628V84.6085C23.6788 84.3711 23.6438 84.2001 23.5734 84.096C23.4802 83.9604 23.3493 83.8923 23.1813 83.8923C23.0664 83.8923 22.9527 83.9233 22.8397 83.9847C22.6636 84.078 22.5272 84.1831 22.4315 84.2997V85.8628C22.4315 86.0539 22.445 86.178 22.4714 86.2351C22.4982 86.2925 22.5374 86.3355 22.5896 86.3641C22.6417 86.3927 22.7473 86.4072 22.907 86.4072V86.5215H21.4617V86.4072C21.5959 86.4072 21.6894 86.3927 21.7426 86.3641C21.7959 86.3355 21.8364 86.2896 21.8637 86.2271C21.8915 86.1647 21.9054 86.0432 21.9054 85.8628V84.7487C21.9054 84.4285 21.8956 84.2215 21.8765 84.1278C21.8618 84.058 21.8381 84.0098 21.8064 83.9831C21.7745 83.9568 21.7311 83.9431 21.6757 83.9431C21.6162 83.9431 21.5448 83.9592 21.4617 83.9913L21.4141 83.8763L22.2946 83.5199H22.4315V84.1407Z" fill="black"/>
<path d="M27.7167 81.9952C27.8063 81.9952 27.882 82.0264 27.945 82.0891C28.0078 82.152 28.0389 82.2277 28.0389 82.3165C28.0389 82.4059 28.0078 82.4822 27.945 82.5457C27.882 82.6096 27.8063 82.6414 27.7167 82.6414C27.6273 82.6414 27.5506 82.6096 27.487 82.5457C27.4232 82.4822 27.3915 82.4059 27.3915 82.3165C27.3915 82.2277 27.4226 82.152 27.4854 82.0891C27.5484 82.0264 27.6253 81.9952 27.7167 81.9952ZM27.9816 83.5199V85.8626C27.9816 86.0453 27.9947 86.1669 28.0215 86.2269C28.0479 86.2876 28.0874 86.3327 28.1393 86.3625C28.1913 86.3921 28.2868 86.407 28.4249 86.407V86.5215H27.0055V86.407C27.1481 86.407 27.2436 86.3933 27.2927 86.3655C27.3414 86.3382 27.3803 86.2925 27.4091 86.2288C27.4375 86.1651 27.4518 86.0432 27.4518 85.8626V84.7389C27.4518 84.423 27.4424 84.2184 27.4232 84.1247C27.4085 84.057 27.385 84.0098 27.3531 83.9829C27.3211 83.9566 27.2778 83.9431 27.2223 83.9431C27.1628 83.9431 27.0904 83.9592 27.0055 83.9911L26.9609 83.8763L27.8411 83.5199H27.9816Z" fill="black"/>
<path d="M29.9629 83.5199V84.1756C30.2076 83.7386 30.4583 83.5199 30.7157 83.5199C30.8327 83.5199 30.9294 83.5557 31.0059 83.6263C31.0826 83.6979 31.1207 83.7798 31.1207 83.8731C31.1207 83.9561 31.093 84.026 31.0378 84.0835C30.9824 84.1407 30.9165 84.1694 30.84 84.1694C30.7658 84.1694 30.6821 84.1329 30.5897 84.0594C30.497 83.9862 30.4287 83.9496 30.3839 83.9496C30.3458 83.9496 30.3041 83.971 30.2595 84.0135C30.1638 84.1005 30.065 84.2437 29.9629 84.443V85.8403C29.9629 86.0018 29.983 86.1239 30.0233 86.2065C30.0513 86.2637 30.1 86.3119 30.1703 86.3496C30.2403 86.3878 30.3415 86.4072 30.4733 86.4072V86.5215H28.977V86.4072C29.1261 86.4072 29.2368 86.3837 29.3088 86.337C29.3622 86.3033 29.3992 86.249 29.4207 86.1747C29.4311 86.1388 29.4364 86.0357 29.4364 85.8659V84.7359C29.4364 84.3966 29.4297 84.1944 29.416 84.1296C29.4021 84.0649 29.3765 84.0178 29.3393 83.988C29.302 83.958 29.2556 83.9431 29.2006 83.9431C29.1347 83.9431 29.0601 83.9592 28.977 83.9913L28.9453 83.8763L29.8289 83.5199H29.9629Z" fill="black"/>
<path d="M33.2596 85.8946V84.7836C32.9384 84.9109 32.731 85.0014 32.6377 85.0542C32.4696 85.1477 32.3493 85.2451 32.2771 85.3469C32.2047 85.4488 32.1687 85.5602 32.1687 85.6813C32.1687 85.8339 32.2145 85.9609 32.306 86.0617C32.3972 86.1626 32.5025 86.2128 32.6216 86.2128C32.7832 86.2128 32.9959 86.1068 33.2596 85.8946ZM33.2596 86.1015C32.9597 86.3326 32.7715 86.4665 32.6948 86.5026C32.5803 86.5555 32.4579 86.582 32.3283 86.582C32.126 86.582 31.9599 86.5132 31.829 86.3751C31.6983 86.2375 31.6328 86.0558 31.6328 85.8307C31.6328 85.6888 31.6647 85.5657 31.7285 85.4616C31.8155 85.3173 31.9672 85.1816 32.183 85.0542C32.3986 84.9271 32.7576 84.7721 33.2596 84.5892V84.4749C33.2596 84.1843 33.2135 83.9849 33.1209 83.8763C33.0284 83.7681 32.8938 83.7138 32.7173 83.7138C32.5833 83.7138 32.477 83.7503 32.3984 83.8224C32.3174 83.8944 32.2771 83.9773 32.2771 84.0704L32.2835 84.2553C32.2835 84.3529 32.2583 84.4284 32.2086 84.4811C32.1585 84.5343 32.093 84.5609 32.0122 84.5609C31.9337 84.5609 31.8693 84.5333 31.8194 84.478C31.7694 84.4229 31.7445 84.3478 31.7445 84.2518C31.7445 84.0698 31.8378 83.9018 32.0253 83.7491C32.2121 83.5962 32.4749 83.5199 32.813 83.5199C33.0724 83.5199 33.2851 83.5636 33.451 83.6505C33.5762 83.7162 33.6691 83.8191 33.7286 83.9593C33.7666 84.0506 33.7861 84.2373 33.7861 84.5196V85.5094C33.7861 85.7876 33.791 85.9578 33.8018 86.0201C33.8124 86.0832 33.83 86.125 33.8544 86.1458C33.8787 86.1675 33.9072 86.1781 33.9391 86.1781C33.9728 86.1781 34.0029 86.1707 34.0282 86.1556C34.073 86.1283 34.1592 86.0507 34.2866 85.9233V86.1015C34.0485 86.4196 33.821 86.579 33.6042 86.579C33.4997 86.579 33.4171 86.5426 33.3555 86.4706C33.2935 86.3987 33.2616 86.2752 33.2596 86.1015Z" fill="black"/>
<path d="M35.6843 82.6486V83.6069H36.3669V83.8296H35.6843V85.7206C35.6843 85.9094 35.7113 86.0368 35.7655 86.1025C35.8197 86.1684 35.8892 86.2011 35.9743 86.2011C36.0445 86.2011 36.1124 86.1794 36.1785 86.136C36.2441 86.0925 36.2953 86.0282 36.3317 85.9433H36.4558C36.3814 86.1513 36.2762 86.3078 36.1402 86.4127C36.004 86.5179 35.8637 86.5703 35.7191 86.5703C35.6211 86.5703 35.5256 86.5434 35.4321 86.4891C35.3384 86.435 35.2695 86.3578 35.2249 86.2568C35.1801 86.1562 35.1578 86.0006 35.1578 85.7906V83.8296H34.6953V83.7245C34.8121 83.678 34.9316 83.599 35.0541 83.4873C35.1762 83.3759 35.2852 83.244 35.3809 83.0911C35.4298 83.0105 35.4979 82.8631 35.5851 82.6486H35.6843Z" fill="black"/>
<path d="M37.4763 84.5202H38.8288C38.8183 84.3334 38.796 84.2015 38.7617 84.1252C38.7089 84.0066 38.6293 83.9131 38.5242 83.8449C38.4186 83.7774 38.3088 83.7431 38.1941 83.7431C38.0175 83.7431 37.8598 83.8117 37.7203 83.9486C37.581 84.0854 37.4998 84.2762 37.4763 84.5202ZM37.4763 84.7047C37.4743 85.1376 37.5796 85.4771 37.7919 85.7234C38.0048 85.9696 38.2546 86.0925 38.5416 86.0925C38.7332 86.0925 38.8995 86.04 39.0409 85.9351C39.1826 85.83 39.3006 85.6499 39.3968 85.3952L39.4956 85.4591C39.4506 85.75 39.3213 86.0145 39.1063 86.2531C38.8916 86.4919 38.6226 86.6113 38.2994 86.6113C37.9484 86.6113 37.6481 86.475 37.398 86.2021C37.1484 85.9296 37.0234 85.5628 37.0234 85.1027C37.0234 84.604 37.1517 84.215 37.4078 83.936C37.6641 83.6569 37.9856 83.5173 38.3726 83.5173C38.7001 83.5173 38.9691 83.6253 39.1796 83.8404C39.3902 84.056 39.4956 84.344 39.4956 84.7047H37.4763Z" fill="black"/>
<path d="M42.0937 83.5204V84.5134H41.9886C41.9078 84.2015 41.8041 83.9897 41.6775 83.8768C41.5511 83.7645 41.3897 83.7084 41.1943 83.7084C41.0454 83.7084 40.9254 83.7474 40.8339 83.826C40.7425 83.9047 40.6965 83.9917 40.6965 84.087C40.6965 84.2058 40.7306 84.3077 40.7985 84.3926C40.8646 84.4797 40.9986 84.572 41.2005 84.6696L41.6664 84.8953C42.098 85.1058 42.314 85.3825 42.314 85.7263C42.314 85.9916 42.2134 86.2053 42.0125 86.3678C41.8114 86.5299 41.5867 86.6113 41.3377 86.6113C41.1592 86.6113 40.955 86.5793 40.7253 86.516C40.6552 86.4944 40.5979 86.4842 40.5531 86.4842C40.5042 86.4842 40.4659 86.5115 40.4381 86.5668H40.333V85.5256H40.4381C40.4981 85.823 40.6116 86.0467 40.7797 86.1974C40.9477 86.3482 41.136 86.4235 41.3443 86.4235C41.4909 86.4235 41.6106 86.3805 41.703 86.2945C41.7957 86.2086 41.8417 86.1051 41.8417 85.9839C41.8417 85.8377 41.7902 85.7148 41.6871 85.615C41.5838 85.515 41.3782 85.3889 41.07 85.2362C40.7613 85.0833 40.5596 84.9455 40.4637 84.8222C40.368 84.7014 40.3203 84.5485 40.3203 84.364C40.3203 84.1242 40.4027 83.9237 40.5676 83.7625C40.7325 83.6012 40.9454 83.5204 41.207 83.5204C41.322 83.5204 41.4613 83.5449 41.6249 83.5935C41.7335 83.6255 41.8057 83.6412 41.8417 83.6412C41.8761 83.6412 41.9025 83.6341 41.9215 83.619C41.9405 83.6043 41.9632 83.5712 41.9886 83.5204H42.0937Z" fill="black"/>
<path d="M47.174 82.3492C46.787 82.3492 46.4755 82.4876 46.2395 82.7632C45.9418 83.1092 45.7931 83.6382 45.7931 84.3514C45.7931 85.0497 45.9439 85.5878 46.246 85.9654C46.4796 86.2564 46.7893 86.4016 47.174 86.4016C47.5739 86.4016 47.8961 86.2564 48.1409 85.9654C48.4277 85.6214 48.5715 85.1146 48.5715 84.4439C48.5715 83.9281 48.4925 83.4943 48.3352 83.142C48.2141 82.8704 48.053 82.6703 47.8519 82.5419C47.651 82.4133 47.4248 82.3492 47.174 82.3492ZM48.649 86.5798C47.4324 86.8514 46.6097 86.5669 46.6097 86.5669C46.3035 86.444 46.0609 86.3134 45.8823 86.1756C45.6227 85.9697 45.4215 85.7166 45.2777 85.4161C45.1343 85.116 45.0625 84.7611 45.0625 84.3514C45.0625 83.7064 45.272 83.1706 45.6911 82.744C46.1098 82.3174 46.617 82.1043 47.2125 82.1043C47.778 82.1043 48.2677 82.318 48.6813 82.7456C49.0949 83.1733 49.3017 83.7132 49.3017 84.3643C49.3017 84.8925 49.1544 85.3561 48.8601 85.7553C48.6928 85.9811 48.4978 86.1662 48.2739 86.3099L48.2248 86.3395C48.2248 86.3395 48.4831 86.3473 48.5692 86.3283C48.8697 86.2615 49.2035 86.1036 49.4435 85.889L49.5517 85.9846C49.3416 86.1893 49.2005 86.3001 48.899 86.4789C48.7952 86.5408 48.649 86.5798 48.649 86.5798Z" fill="black"/>
<path d="M52.6421 83.6065V85.3727C52.6421 85.7106 52.6499 85.9169 52.6661 85.9922C52.6818 86.0676 52.7074 86.12 52.7426 86.1498C52.7777 86.1794 52.8184 86.1943 52.8655 86.1943C52.9312 86.1943 53.0056 86.1764 53.0889 86.14L53.1332 86.2517L52.2592 86.6113H52.1158V85.9937C51.8647 86.2654 51.6736 86.4362 51.5415 86.5062C51.4099 86.5762 51.2704 86.6113 51.1238 86.6113C50.9597 86.6113 50.8178 86.5638 50.6979 86.4697C50.5777 86.3754 50.494 86.2537 50.4476 86.1051C50.4007 85.9569 50.3774 85.7467 50.3774 85.4746V84.1727C50.3774 84.035 50.3623 83.9396 50.3328 83.8866C50.3027 83.8335 50.259 83.7925 50.2003 83.7639C50.1418 83.7353 50.0358 83.7221 49.8828 83.7241V83.6065H50.9068V85.5577C50.9068 85.8296 50.954 86.0078 51.0487 86.0925C51.1432 86.1774 51.2578 86.2198 51.3917 86.2198C51.4832 86.2198 51.5867 86.1911 51.7029 86.1337C51.8188 86.0767 51.9561 85.9673 52.1158 85.8057V84.154C52.1158 83.9884 52.0856 83.8766 52.0248 83.818C51.9643 83.7598 51.8383 83.7286 51.6468 83.7241V83.6065H52.6421Z" fill="black"/>
<path d="M55.3377 85.8946V84.7836C55.0168 84.9109 54.8093 85.0014 54.7159 85.0542C54.5477 85.1477 54.4275 85.2451 54.3553 85.3469C54.2833 85.4488 54.2468 85.5602 54.2468 85.6813C54.2468 85.8339 54.2927 85.9609 54.3837 86.0617C54.4751 86.1626 54.5807 86.2128 54.6997 86.2128C54.8613 86.2128 55.0742 86.1068 55.3377 85.8946ZM55.3377 86.1015C55.0378 86.3326 54.8494 86.4665 54.7729 86.5026C54.6584 86.5555 54.5359 86.582 54.4062 86.582C54.2043 86.582 54.038 86.5132 53.9071 86.3751C53.7762 86.2375 53.7109 86.0558 53.7109 85.8307C53.7109 85.6888 53.7428 85.5657 53.8065 85.4616C53.8938 85.3173 54.0454 85.1816 54.2612 85.0542C54.477 84.9271 54.8357 84.7721 55.3377 84.5892V84.4749C55.3377 84.1843 55.2913 83.9849 55.1988 83.8763C55.1063 83.7681 54.9722 83.7138 54.7954 83.7138C54.6615 83.7138 54.5551 83.7503 54.4763 83.8224C54.396 83.8944 54.3553 83.9773 54.3553 84.0704L54.3616 84.2553C54.3616 84.3529 54.3364 84.4284 54.2865 84.4811C54.2368 84.5343 54.1714 84.5609 54.0904 84.5609C54.0118 84.5609 53.9476 84.5333 53.8975 84.478C53.8476 84.4229 53.8224 84.3478 53.8224 84.2518C53.8224 84.0698 53.9163 83.9018 54.1035 83.7491C54.2904 83.5962 54.5531 83.5199 54.8912 83.5199C55.1507 83.5199 55.3631 83.5636 55.5291 83.6505C55.6547 83.7162 55.7472 83.8191 55.8067 83.9593C55.8448 84.0506 55.864 84.2373 55.864 84.5196V85.5094C55.864 85.7876 55.8695 85.9578 55.8799 86.0201C55.8908 86.0832 55.9082 86.125 55.9325 86.1458C55.9571 86.1675 55.9853 86.1781 56.0172 86.1781C56.0511 86.1781 56.081 86.1707 56.1064 86.1556C56.1512 86.1283 56.2371 86.0507 56.3647 85.9233V86.1015C56.1266 86.4196 55.899 86.579 55.6823 86.579C55.5782 86.579 55.4952 86.5426 55.4332 86.4706C55.3716 86.3987 55.3399 86.2752 55.3377 86.1015Z" fill="black"/>
<path d="M57.905 81.9952V85.8626C57.905 86.0453 57.9183 86.1663 57.9446 86.2257C57.9712 86.2851 58.0121 86.33 58.0678 86.3608C58.1228 86.3915 58.2261 86.407 58.3773 86.407V86.5215H56.945V86.407C57.0786 86.407 57.17 86.3933 57.2191 86.3655C57.2678 86.3382 57.3063 86.2925 57.3339 86.2288C57.3617 86.1651 57.3754 86.0432 57.3754 85.8626V83.2144C57.3754 82.8856 57.3682 82.6833 57.3533 82.6078C57.3382 82.5326 57.314 82.481 57.2813 82.4534C57.2484 82.4259 57.2062 82.4122 57.1551 82.4122C57.0999 82.4122 57.0299 82.4294 56.945 82.4632L56.8906 82.3516L57.7616 81.9952H57.905Z" fill="black"/>
<path d="M59.7792 81.9952C59.8688 81.9952 59.9447 82.0264 60.0073 82.0891C60.0701 82.152 60.1016 82.2277 60.1016 82.3165C60.1016 82.4059 60.0701 82.4822 60.0073 82.5457C59.9447 82.6096 59.8688 82.6414 59.7792 82.6414C59.6898 82.6414 59.6133 82.6096 59.5497 82.5457C59.4857 82.4822 59.4538 82.4059 59.4538 82.3165C59.4538 82.2277 59.4851 82.152 59.5481 82.0891C59.6109 82.0264 59.688 81.9952 59.7792 81.9952ZM60.0441 83.5199V85.8626C60.0441 86.0453 60.0574 86.1669 60.0838 86.2269C60.1106 86.2876 60.1501 86.3327 60.2018 86.3625C60.254 86.3921 60.3493 86.407 60.4876 86.407V86.5215H59.0678V86.407C59.2106 86.407 59.3063 86.3933 59.355 86.3655C59.4041 86.3382 59.4426 86.2925 59.4714 86.2288C59.5002 86.1651 59.5146 86.0432 59.5146 85.8626V84.7389C59.5146 84.423 59.5049 84.2184 59.4857 84.1247C59.4708 84.057 59.4477 84.0098 59.4158 83.9829C59.3836 83.9566 59.3403 83.9431 59.2848 83.9431C59.2253 83.9431 59.1531 83.9592 59.0678 83.9911L59.0234 83.8763L59.9038 83.5199H60.0441Z" fill="black"/>
<path d="M62.0278 82.6486V83.6069H62.7108V83.8296H62.0278V85.7206C62.0278 85.9094 62.0552 86.0368 62.1092 86.1025C62.1637 86.1684 62.2332 86.2011 62.3183 86.2011C62.3884 86.2011 62.4566 86.1794 62.5224 86.136C62.5881 86.0925 62.639 86.0282 62.6756 85.9433H62.7998C62.7253 86.1513 62.6202 86.3078 62.484 86.4127C62.3477 86.5179 62.2076 86.5703 62.063 86.5703C61.965 86.5703 61.8695 86.5434 61.776 86.4891C61.6824 86.435 61.6134 86.3578 61.5686 86.2568C61.524 86.1562 61.5017 86.0006 61.5017 85.7906V83.8296H61.0391V83.7245C61.1559 83.678 61.2755 83.599 61.3982 83.4873C61.5202 83.3759 61.6294 83.244 61.7249 83.0911C61.774 83.0105 61.8417 82.8631 61.929 82.6486H62.0278Z" fill="black"/>
<path d="M63.1484 83.6052H64.5107V83.7227H64.4438C64.3479 83.7227 64.2763 83.7435 64.2282 83.7848C64.1804 83.8264 64.1566 83.8779 64.1566 83.9395C64.1566 84.022 64.1916 84.1367 64.2618 84.2828L64.9732 85.7535L65.6269 84.1432C65.6631 84.0561 65.6813 83.9701 65.6813 83.8852C65.6813 83.847 65.6738 83.8183 65.659 83.7991C65.6416 83.776 65.6155 83.7572 65.5793 83.7435C65.5428 83.7297 65.4792 83.7227 65.3876 83.7227V83.6052H66.3383V83.7227C66.2598 83.7311 66.199 83.7482 66.1565 83.7736C66.1139 83.7991 66.0675 83.847 66.0164 83.9166C65.9973 83.9466 65.9609 84.0283 65.9078 84.1622L64.7181 87.0715C64.603 87.3534 64.4526 87.5669 64.2667 87.711C64.0806 87.8553 63.9016 87.9277 63.7293 87.9277C63.6036 87.9277 63.5005 87.8914 63.4199 87.8193C63.3389 87.7475 63.2984 87.6646 63.2984 87.5713C63.2984 87.4821 63.3278 87.4105 63.3861 87.3564C63.4446 87.3021 63.5252 87.2752 63.6273 87.2752C63.6974 87.2752 63.793 87.2984 63.9141 87.3452C63.9991 87.377 64.0523 87.3929 64.0736 87.3929C64.1376 87.3929 64.2072 87.3599 64.2824 87.2942C64.3579 87.2284 64.434 87.1011 64.5107 86.9123L64.7181 86.4062L63.6686 84.2065C63.6367 84.141 63.5856 84.0591 63.5154 83.9615C63.462 83.8872 63.4186 83.8376 63.3845 83.8121C63.3356 83.778 63.2571 83.7482 63.1484 83.7227V83.6052Z" fill="black"/>
<path d="M71.338 86.5215L69.6667 82.8896V85.7738C69.6667 86.039 69.6955 86.2045 69.7528 86.2702C69.8316 86.3594 69.9557 86.4039 70.1259 86.4039H70.2791V86.5215H68.7734V86.4039H68.9266C69.1093 86.4039 69.2392 86.3488 69.3157 86.2382C69.3625 86.1706 69.3858 86.0155 69.3858 85.7738V82.9533C69.3858 82.7625 69.3646 82.6245 69.322 82.5396C69.2924 82.4781 69.2373 82.4265 69.1578 82.3851C69.078 82.3438 68.9498 82.3232 68.7734 82.3232V82.2052H69.9983L71.5675 85.5825L73.1116 82.2052H74.3365V82.3232H74.1867C74.0014 82.3232 73.8707 82.3783 73.7942 82.4888C73.7472 82.5565 73.7241 82.7114 73.7241 82.9533V85.7738C73.7241 86.039 73.7537 86.2045 73.8134 86.2702C73.8922 86.3594 74.0166 86.4039 74.1867 86.4039H74.3365V86.5215H72.4992V86.4039H72.6524C72.8373 86.4039 72.967 86.3488 73.0415 86.2382C73.0883 86.1706 73.1116 86.0155 73.1116 85.7738V82.8896L71.4434 86.5215H71.338Z" fill="black"/>
<path d="M76.6658 85.8946V84.7836C76.3447 84.9109 76.1371 85.0014 76.0436 85.0542C75.8757 85.1477 75.7556 85.2451 75.683 85.3469C75.611 85.4488 75.5748 85.5602 75.5748 85.6813C75.5748 85.8339 75.6204 85.9609 75.7118 86.0617C75.8032 86.1626 75.9088 86.2128 76.0278 86.2128C76.1894 86.2128 76.4019 86.1068 76.6658 85.8946ZM76.6658 86.1015C76.3659 86.3326 76.1776 86.4665 76.1011 86.5026C75.9865 86.5555 75.864 86.582 75.7341 86.582C75.5324 86.582 75.3659 86.5132 75.2352 86.3751C75.1043 86.2375 75.0391 86.0558 75.0391 85.8307C75.0391 85.6888 75.0706 85.5657 75.1346 85.4616C75.2215 85.3173 75.3735 85.1816 75.5891 85.0542C75.8051 84.9271 76.1639 84.7721 76.6658 84.5892V84.4749C76.6658 84.1843 76.6194 83.9849 76.5269 83.8763C76.4345 83.7681 76.2999 83.7138 76.1234 83.7138C75.9892 83.7138 75.8832 83.7503 75.8045 83.8224C75.7237 83.8944 75.683 83.9773 75.683 84.0704L75.6897 84.2553C75.6897 84.3529 75.6646 84.4284 75.6147 84.4811C75.5645 84.5343 75.4993 84.5609 75.4185 84.5609C75.3397 84.5609 75.2757 84.5333 75.2256 84.478C75.1753 84.4229 75.1505 84.3478 75.1505 84.2518C75.1505 84.0698 75.244 83.9018 75.4312 83.7491C75.6185 83.5962 75.8812 83.5199 76.2193 83.5199C76.4787 83.5199 76.6912 83.5636 76.8571 83.6505C76.9824 83.7162 77.0749 83.8191 77.1348 83.9593C77.1729 84.0506 77.1919 84.2373 77.1919 84.5196V85.5094C77.1919 85.7876 77.1976 85.9578 77.2081 86.0201C77.2185 86.0832 77.2363 86.125 77.2604 86.1458C77.2852 86.1675 77.3134 86.1781 77.3449 86.1781C77.3793 86.1781 77.4089 86.1707 77.4345 86.1556C77.4791 86.1283 77.5652 86.0507 77.6928 85.9233V86.1015C77.4547 86.4196 77.2271 86.579 77.0101 86.579C76.9059 86.579 76.8231 86.5426 76.7613 86.4706C76.6998 86.3987 76.6681 86.2752 76.6658 86.1015Z" fill="black"/>
<path d="M79.0879 83.5199V84.1756C79.3322 83.7386 79.5833 83.5199 79.8407 83.5199C79.9577 83.5199 80.0546 83.5557 80.1311 83.6263C80.2076 83.6979 80.2457 83.7798 80.2457 83.8731C80.2457 83.9561 80.218 84.026 80.163 84.0835C80.1074 84.1407 80.0415 84.1694 79.965 84.1694C79.8906 84.1694 79.8073 84.1329 79.7147 84.0594C79.622 83.9862 79.5537 83.9496 79.5089 83.9496C79.4708 83.9496 79.4291 83.971 79.3845 84.0135C79.2888 84.1005 79.19 84.2437 79.0879 84.443V85.8403C79.0879 86.0018 79.108 86.1239 79.1485 86.2065C79.1761 86.2637 79.225 86.3119 79.2953 86.3496C79.3653 86.3878 79.4665 86.4072 79.5983 86.4072V86.5215H78.1022V86.4072C78.2507 86.4072 78.3616 86.3837 78.434 86.337C78.487 86.3033 78.5242 86.249 78.5457 86.1747C78.5561 86.1388 78.5614 86.0357 78.5614 85.8659V84.7359C78.5614 84.3966 78.5549 84.1944 78.541 84.1296C78.5269 84.0649 78.5013 84.0178 78.4643 83.988C78.4272 83.958 78.3808 83.9431 78.3256 83.9431C78.2595 83.9431 78.1853 83.9592 78.1022 83.9913L78.0703 83.8763L78.9539 83.5199H79.0879Z" fill="black"/>
<path d="M81.6003 81.9952V84.8983L82.3436 84.2203C82.5009 84.076 82.5925 83.9847 82.6181 83.9463C82.6349 83.921 82.6437 83.8955 82.6437 83.87C82.6437 83.828 82.6261 83.7912 82.5909 83.76C82.5559 83.7294 82.4978 83.7122 82.4168 83.7079V83.6061H83.6866V83.7079C83.5122 83.7122 83.3669 83.7386 83.251 83.7873C83.1352 83.8363 83.0082 83.9231 82.8701 84.0482L82.1202 84.7389L82.8701 85.6844C83.0783 85.9457 83.2186 86.1108 83.2911 86.1812C83.3931 86.2808 83.4825 86.3455 83.559 86.3751C83.6122 86.3966 83.7044 86.407 83.8366 86.407V86.5215H82.4168V86.407C82.4978 86.4049 82.5526 86.3927 82.5815 86.3706C82.6099 86.3482 82.6242 86.317 82.6242 86.2765C82.6242 86.2276 82.5817 86.1494 82.4966 86.0408L81.6003 84.8983V85.8659C81.6003 86.0551 81.6134 86.179 81.6402 86.2382C81.6668 86.298 81.7044 86.34 81.7533 86.3655C81.8024 86.3911 81.9085 86.4049 82.0726 86.407V86.5215H80.5859V86.407C80.7346 86.407 80.8463 86.3892 80.921 86.3531C80.9654 86.3294 80.9993 86.2937 81.0231 86.2445C81.055 86.1747 81.0707 86.0539 81.0707 85.8816V83.227C81.0707 82.8896 81.0631 82.6833 81.0486 82.6078C81.0335 82.5326 81.0091 82.4806 80.9752 82.452C80.941 82.4234 80.8966 82.4089 80.8412 82.4089C80.7964 82.4089 80.7297 82.4271 80.6403 82.4632L80.5859 82.3516L81.4536 81.9952H81.6003Z" fill="black"/>
<path d="M42.8802 78.8404C42.8348 78.7065 42.9847 78.6312 43.1189 78.6002C43.1469 78.5939 43.1856 78.5916 43.2355 78.5939L43.2543 78.4716C43.2633 78.411 43.2661 78.373 43.2627 78.3575C43.2531 78.3169 43.2036 78.3065 43.1146 78.3267C42.9653 78.3614 42.8519 78.4504 42.7758 78.5932C42.6989 78.7365 42.674 78.8653 42.7008 78.9809C42.7188 79.0588 42.7767 79.1184 42.8742 79.159C42.7666 79.2607 42.7368 79.4162 42.7855 79.6263L42.7934 79.6602C42.8869 79.4701 42.9976 79.3295 43.1256 79.2389C43.2017 79.1856 43.2803 79.1452 43.3623 79.1168L43.4061 78.8235C43.3328 78.8627 43.2672 78.889 43.2093 78.9023C43.0773 78.9329 42.9227 78.9664 42.8802 78.8404ZM17.6121 74.4723C17.7315 74.4723 17.8278 74.3717 17.8278 74.2474C17.8278 74.1231 17.7315 74.0225 17.6121 74.0225C17.4926 74.0225 17.3963 74.1231 17.3963 74.2474C17.3963 74.3717 17.4926 74.4723 17.6121 74.4723ZM17.0232 74.4895C17.1422 74.4895 17.2388 74.3886 17.2388 74.2647C17.2388 74.1404 17.1422 74.0398 17.0232 74.0398C16.9037 74.0398 16.8072 74.1404 16.8072 74.2647C16.8072 74.3886 16.9037 74.4895 17.0232 74.4895ZM24.0428 79.0139C23.9233 79.0139 23.827 79.1141 23.827 79.2385C23.827 79.363 23.9233 79.4634 24.0428 79.4634C24.1622 79.4634 24.2586 79.363 24.2586 79.2385C24.2586 79.1141 24.1622 79.0139 24.0428 79.0139ZM23.4537 79.0311C23.3344 79.0311 23.2379 79.1315 23.2379 79.2558C23.2379 79.3801 23.3344 79.4807 23.4537 79.4807C23.5729 79.4807 23.6695 79.3801 23.6695 79.2558C23.6695 79.1315 23.5729 79.0311 23.4537 79.0311ZM27.258 75.1343C27.3775 75.1343 27.474 75.0341 27.474 74.9095C27.474 74.7852 27.3775 74.6848 27.258 74.6848C27.1388 74.6848 27.0422 74.7852 27.0422 74.9095C27.0422 75.0341 27.1388 75.1343 27.258 75.1343ZM26.6691 75.1516C26.7882 75.1516 26.8847 75.051 26.8847 74.9267C26.8847 74.8024 26.7882 74.7022 26.6691 74.7022C26.5499 74.7022 26.4531 74.8024 26.4531 74.9267C26.4531 75.051 26.5499 75.1516 26.6691 75.1516ZM50.0761 75.1684C50.1955 75.1684 50.2921 75.0679 50.2921 74.9434C50.2921 74.8191 50.1955 74.7187 50.0761 74.7187C49.9568 74.7187 49.8603 74.8191 49.8603 74.9434C49.8603 75.0679 49.9568 75.1684 50.0761 75.1684ZM49.4872 75.1853C49.6062 75.1853 49.7028 75.0849 49.7028 74.9604C49.7028 74.8361 49.6062 74.7356 49.4872 74.7356C49.3677 74.7356 49.2714 74.8361 49.2714 74.9604C49.2714 75.0849 49.3677 75.1853 49.4872 75.1853ZM71.7311 74.5236C71.8501 74.5236 71.9467 74.4229 71.9467 74.2986C71.9467 74.1743 71.8501 74.0737 71.7311 74.0737C71.6114 74.0737 71.5153 74.1743 71.5153 74.2986C71.5153 74.4229 71.6114 74.5236 71.7311 74.5236ZM61.952 78.9994C61.825 78.9994 61.7221 79.1064 61.7221 79.2385C61.7221 79.3709 61.825 79.4777 61.952 79.4777C62.0788 79.4777 62.1813 79.3709 62.1813 79.2385C62.1813 79.1064 62.0788 78.9994 61.952 78.9994ZM71.1418 74.5405C71.2613 74.5405 71.3578 74.4399 71.3578 74.3156C71.3578 74.1913 71.2613 74.0906 71.1418 74.0906C71.0223 74.0906 70.926 74.1913 70.926 74.3156C70.926 74.4399 71.0223 74.5405 71.1418 74.5405ZM32.1632 76.5225L32.0012 77.1336C32.6226 77.4136 32.4989 77.9399 32.395 78.1628C32.1779 78.6273 31.8955 78.8553 31.6273 79.0266C30.8973 79.4918 30.3853 78.6867 30.3853 78.6867L30.2748 78.831C30.6492 79.6124 31.1296 79.5787 31.4655 79.5101C32.4363 79.3123 32.6738 78.3559 32.6738 78.3559C32.98 77.2355 32.1632 76.5225 32.1632 76.5225ZM43.7912 77.4688H43.3445L43.8419 76.985C44.0332 77.3287 43.7912 77.4688 43.7912 77.4688ZM44.1486 76.412C44.8119 75.546 44.5609 73.7 44.5609 73.7H44.3568L43.7568 73.9292L43.7188 74.1584H44.2291C44.3312 75.4696 43.872 76.1957 43.872 76.1957C43.7315 75.8901 42.8511 74.8716 42.8511 74.8716C42.5961 74.5956 42.4293 74.6193 42.3408 74.7187C41.8879 75.2241 42.4809 75.7119 42.4809 75.7119C42.6746 75.8371 42.9321 75.5035 42.9321 75.5035L43.6382 76.3994C43.808 76.5902 43.7018 76.6921 43.7018 76.6921C43.4977 76.9723 42.847 77.4561 42.847 77.4561V77.7998H43.9229C44.6245 77.4306 44.1486 76.6794 44.1486 76.6794C44.0868 76.53 44.1486 76.412 44.1486 76.412ZM50.073 77.6343C50.073 77.6343 49.6516 77.6598 49.4986 77.4306C49.4986 77.4306 49.3583 76.9977 49.8048 76.7813C49.8048 76.7813 50.3027 77.125 50.3661 77.3669C50.3661 77.3669 50.5068 77.6343 50.073 77.6343ZM50.1876 76.4249C49.8689 76.1193 49.9709 75.7752 49.9709 75.7752C49.3966 76.2337 49.486 76.3231 49.486 76.3231L49.5751 76.5139C49.3966 76.7176 49.2563 76.8958 49.2563 76.8958C48.5545 78.0035 49.9325 77.978 49.9325 77.978C50.7875 78.0162 50.7875 77.3669 50.7875 77.3669C50.7744 76.845 50.1876 76.4249 50.1876 76.4249ZM52.3653 75.6819V75.9026L52.9182 75.894L52.9004 77.5098C51.6998 78.1148 51.7104 77.4475 51.7104 77.4475V77.0911L51.4465 77.3373L51.4379 77.6853C51.4379 78.0609 52.6548 78.0333 52.6548 78.0333C53.2723 78.0068 53.3183 77.6682 53.3183 77.6682L53.3392 75.2884L53.132 75.2821L52.3653 75.6819ZM55.3043 77.1761C55.2022 76.7305 55.4319 76.7431 55.4319 76.7431C55.7506 76.7558 55.7637 77.4561 55.7637 77.4561C55.4319 77.4306 55.3043 77.1761 55.3043 77.1761ZM66.2137 77.4496L66.175 73.9549H65.8431C65.2523 74.267 65.2192 74.2747 65.2182 74.2735L65.2225 74.553H65.6988L65.7455 77.2014C65.7455 77.2014 65.7373 77.4392 65.3546 77.4475L63.6233 77.4561C62.3965 76.2316 61.8415 76.1571 61.8415 76.1571C61.2119 76.0553 60.9483 76.8109 60.9483 76.8109L61.2461 76.828C61.2461 76.828 61.4668 76.48 61.9771 76.794C61.9771 76.794 62.5261 77.1844 62.8418 77.4496H56.0549C56.0549 77.4496 56.1208 76.4629 55.6741 76.2337C55.6741 76.2337 55.2278 76.0263 55.0361 76.6286C54.9393 76.9338 54.8109 77.7447 55.5595 77.7998C55.5595 77.7998 55.6659 77.8129 55.7594 77.8043C55.7594 77.8043 55.4618 78.8396 54.7898 78.8141C54.7898 78.8141 54.1175 78.8904 53.599 78.1354L53.5306 78.2793C53.5306 78.2793 53.7689 79.1539 54.6706 79.2133C54.6706 79.2133 55.7976 79.3789 55.9848 77.7998H66.5645L66.5676 77.6374C66.2104 77.6374 66.2137 77.4496 66.2137 77.4496ZM29.1732 77.6472V77.7956H30.4281L30.4297 77.6406C30.1652 77.6504 30.0726 77.4467 30.0726 77.4467L30.0408 73.9592L29.6792 73.9504C29.0711 74.2264 29.0756 74.2388 29.0756 74.2388L29.0793 74.5448L29.5604 74.5491L29.5653 77.4496C29.543 77.5865 29.1732 77.6472 29.1732 77.6472ZM46.5661 77.4496L46.5481 73.9549H46.2216L45.5708 74.2813L45.5753 74.553H46.0518L46.0696 77.4496C46.0696 77.6088 45.6655 77.6429 45.6655 77.6429L45.6665 77.7956H46.9298L46.9232 77.6429C46.5567 77.6163 46.5661 77.4496 46.5661 77.4496ZM68.3954 77.4434L68.3571 73.958L68.0509 73.9547L67.4001 74.2984L67.4041 74.5446L67.8658 74.5372L67.9008 77.4434C67.8818 77.6025 67.4831 77.6406 67.4831 77.6406L67.4768 77.7956L68.7973 77.7935V77.6384C68.4306 77.6512 68.3954 77.4434 68.3954 77.4434ZM40.8797 77.5961L40.3884 77.2712C40.3884 77.2712 40.4524 76.8958 40.6756 76.794C40.6756 76.794 41.0458 76.8513 41.1223 77.3416C41.1223 77.3416 41.1859 77.7617 40.8797 77.5961ZM41.1628 76.6368C40.8566 76.1783 40.4739 76.3994 40.4739 76.3994C40.1677 76.62 39.9867 77.2757 39.9867 77.2757C39.9484 77.3687 39.7823 77.4496 39.7823 77.4496C39.7823 77.4496 38.3534 77.4688 37.9962 77.4561L34.548 77.4496C34.2291 77.4369 34.2639 77.2142 34.2639 77.2142L34.2991 73.958L33.98 73.9547C33.3453 74.2474 33.3453 74.2441 33.3453 74.2441L33.3422 74.553L33.8047 74.5562L33.792 77.2651C33.7791 77.7106 34.2768 77.7872 34.2768 77.7872L39.7848 77.8254L40.1843 77.5706C40.3207 77.6896 40.4739 77.7998 40.4739 77.7998C40.8736 77.9017 41.4602 77.8335 41.4602 77.8335C41.4858 77.6637 41.4602 77.4092 41.4602 77.4092C41.4048 76.9936 41.1628 76.6368 41.1628 76.6368ZM16.9497 76.5268C17.2111 76.1383 17.5877 76.062 17.5877 76.062L17.6004 76.8258C17.2177 76.8258 16.9497 76.5268 16.9497 76.5268ZM27.6931 77.4347L27.7058 75.8962H27.3398C26.6724 76.3516 26.6767 76.3527 26.6767 76.3527L26.6724 76.5615L27.2208 76.5478L27.2273 77.2014C27.2187 77.4306 27.0422 77.4392 27.0422 77.4392L25.3964 77.4467C25.1316 77.4337 25.1369 77.2014 25.1369 77.2014V75.9111L24.8796 75.9058C24.1841 76.3451 24.1841 76.3441 24.1841 76.3441V76.5394H24.6402L24.6353 77.193C24.6179 77.422 24.3915 77.4561 24.3915 77.4561L18.4137 77.4528C18.0565 77.4402 18.0725 77.0785 18.0725 77.0785L18.0661 74.9224L17.7471 74.9191L17.0389 75.2874L17.0356 75.4253L17.5493 75.4233V75.6564C17.2559 75.7327 16.9368 76.0259 16.9368 76.0259C16.4903 76.4249 16.5159 76.8152 16.5159 76.8152C16.6435 77.1207 17.2431 77.4263 17.2431 77.4263L17.5493 77.1844C17.5239 77.5155 17.8984 77.7829 17.8984 77.7829L18.1617 77.7872L28.1715 77.7807L28.1674 77.6492C27.691 77.6578 27.6931 77.4347 27.6931 77.4347ZM75.1002 77.558L74.6093 77.2332C74.6093 77.2332 74.6729 76.8576 74.896 76.7558C74.896 76.7558 75.2198 76.7582 75.3256 77.2193C75.3256 77.2193 75.4352 77.6949 75.1002 77.558ZM70.9027 76.5394C71.1643 76.1508 71.5407 76.0744 71.5407 76.0744L71.5531 76.8382C71.1702 76.8382 70.9027 76.5394 70.9027 76.5394ZM75.3833 76.5988C75.1934 76.1902 74.8506 76.2677 74.6943 76.361C74.3701 76.5549 74.2114 77.2757 74.2114 77.2757C74.1593 77.4496 73.9966 77.4496 73.9966 77.4496C73.9966 77.4496 72.5677 77.4624 72.2103 77.4496C71.8532 77.4369 71.8659 77.0869 71.8659 77.0869L71.8788 74.8585L71.6806 74.8618L70.9855 75.279L70.9792 75.4253H71.4926L71.4848 75.6591C71.2101 75.7164 71.0129 75.8944 70.8835 76.0175C70.4494 76.4292 70.4623 76.8068 70.4623 76.8068C70.5897 77.1124 71.1897 77.4179 71.1897 77.4179L71.4959 77.1761C71.4705 77.5069 71.8532 77.7872 71.8532 77.7872H74.0052L74.4051 77.5324C74.5411 77.6516 74.6943 77.7617 74.6943 77.7617C75.094 77.8635 75.6811 77.7956 75.6811 77.7956C75.7064 77.6255 75.6868 77.4496 75.6868 77.4496C75.5733 77.0287 75.4784 76.8035 75.3833 76.5988ZM82.4114 77.4528H81.3619C80.826 77.1346 81.0653 76.6072 81.0653 76.6072C81.2355 76.3273 81.4828 76.3488 81.6225 76.3739C81.9543 76.4333 82.2987 76.7601 82.2987 76.7601C82.2987 76.7601 82.2161 75.9834 81.6777 75.9026C81.3517 75.8538 80.7039 75.9071 80.5973 76.6582C80.5675 76.8709 80.555 77.2204 80.8164 77.4496L79.449 77.4475C78.9131 77.3881 78.9642 77.1081 78.9642 77.1081L78.9219 74.8416L78.6314 74.8522L78.0286 75.2914V75.4188L78.6413 75.4221V76.4502C78.4113 77.1824 78.2518 77.2967 78.2518 77.2967C77.9712 76.0365 77.008 75.1261 77.008 75.1261C76.6075 74.7267 76.5132 75.0867 76.4976 75.2151C76.4195 75.8599 76.9824 76.1571 76.9824 76.1571L77.0845 75.9156C77.3268 76.1702 77.5208 76.3484 77.6586 76.6539C77.9575 77.3157 77.9155 77.4416 77.7863 77.6598C77.4784 78.1799 76.217 78.2836 76.217 78.2836V78.4555L77.3397 78.4491C78.1051 78.1946 78.6243 77.1463 78.6243 77.1463C78.7263 77.8125 79.0407 77.7956 79.0407 77.7956H82.8856L82.4114 77.4528Z" fill="black"/>
</g>
</g>
<defs>
<clipPath id="clip0_1651_3263">
<rect x="0.273438" width="102" height="102" rx="51" fill="white"/>
</clipPath>
</defs>
</svg>
